<svg width="192" height="210" viewBox="0 0 192 210" fill="none" xmlns="http://www.w3.org/2000/svg">
<path d="M109.187 169.555C109.187 155.906 122.666 143.323 136.317 143.323C138.409 143.323 140.437 142.795 142.383 143.28C142.41 142.684 142.426 139.183 142.426 138.581V0H24.2637L0 24.919V186.167H111.56C109.16 182.36 109.187 174.391 109.187 169.555Z" fill="url(#paint0_linear)"/>
<path d="M107.077 172.192C107.077 164.009 110.328 156.162 116.115 150.376C121.902 144.59 129.75 141.34 137.934 141.34C138.865 141.34 139.78 141.385 140.698 141.464V69.929H2.23648V183.003H109.026C107.733 179.545 107.073 175.883 107.077 172.192Z" fill="#FCFCFC"/>
<path d="M140.595 70.9835H1.82242V24.9189L24.2637 1.4502H140.595V70.9835Z" fill="#FCFCFC"/>
<path d="M131.953 15.4497H94.3094V18.3213H131.953V15.4497Z" fill="#E0E0E0"/>
<path d="M131.953 25.9976H94.3094V28.8692H131.953V25.9976Z" fill="#E0E0E0"/>
<path d="M131.953 36.5452H94.3094V39.4168H131.953V36.5452Z" fill="#E0E0E0"/>
<path opacity="0.5" d="M131.953 47.093H94.3094V49.9646H131.953V47.093Z" fill="#6C63FF"/>
<path d="M131.953 57.6406H94.3094V60.5122H131.953V57.6406Z" fill="#E0E0E0"/>
<path d="M131.953 68.1885H94.3094V71.0601H131.953V68.1885Z" fill="#E0E0E0"/>
<path opacity="0.5" d="M59.9868 90.6023H22.3438V93.4739H59.9868V90.6023Z" fill="#6C63FF"/>
<path d="M59.9868 102.083H22.3438V104.955H59.9868V102.083Z" fill="#E0E0E0"/>
<path opacity="0.5" d="M120.601 96.343H22.3438V99.2146H120.601V96.343Z" fill="#69F0AE"/>
<path opacity="0.5" d="M59.9868 118.351H22.3438V121.222H59.9868V118.351Z" fill="#6C63FF"/>
<path d="M59.9868 129.834H22.3438V132.706H59.9868V129.834Z" fill="#E0E0E0"/>
<path d="M120.601 124.091H22.3438V126.963H120.601V124.091Z" fill="#E0E0E0"/>
<path opacity="0.5" d="M59.9868 146.102H22.3438V148.973H59.9868V146.102Z" fill="#6C63FF"/>
<path d="M59.9868 157.583H22.3438V160.455H59.9868V157.583Z" fill="#E0E0E0"/>
<path d="M102.891 151.843H22.3438V154.714H102.891V151.843Z" fill="#E0E0E0"/>
<path d="M81.7582 74.0978H13.1868V14.2395L15.5604 11.3389H21.033H81.7582V74.0978Z" fill="#4746A3"/>
<path d="M1.29495 25.4463H24.7912V0.922852L1.29495 25.4463Z" fill="url(#paint1_linear)"/>
<path d="M1.82242 24.9189H24.2637V1.4502L1.82242 24.9189Z" fill="#F5F5F5"/>
<g opacity="0.5">
<path opacity="0.5" d="M165.592 210C180.177 210 192 198.179 192 183.596C192 169.014 180.177 157.193 165.592 157.193C151.007 157.193 139.184 169.014 139.184 183.596C139.184 198.179 151.007 210 165.592 210Z" fill="url(#paint2_linear)"/>
</g>
<path d="M165.592 208.31C179.243 208.31 190.309 197.245 190.309 183.596C190.309 169.948 179.243 158.883 165.592 158.883C151.941 158.883 140.875 169.948 140.875 183.596C140.875 197.245 151.941 208.31 165.592 208.31Z" fill="#3AD29F"/>
<path d="M175.881 182.414H167.054V173.585C167.054 173.195 166.899 172.82 166.623 172.545C166.347 172.269 165.973 172.114 165.583 172.114C165.192 172.114 164.818 172.269 164.542 172.545C164.266 172.82 164.111 173.195 164.111 173.585V182.414H155.283C154.893 182.414 154.518 182.569 154.243 182.845C153.967 183.121 153.812 183.495 153.812 183.886C153.812 184.276 153.967 184.65 154.243 184.926C154.518 185.202 154.893 185.357 155.283 185.357H164.112V194.185C164.112 194.575 164.267 194.95 164.543 195.226C164.819 195.501 165.193 195.657 165.584 195.657C165.974 195.657 166.348 195.501 166.624 195.226C166.9 194.95 167.055 194.575 167.055 194.185V185.356H175.883C176.273 185.356 176.648 185.201 176.924 184.925C177.199 184.649 177.355 184.275 177.355 183.885C177.355 183.494 177.199 183.12 176.924 182.844C176.648 182.568 176.273 182.413 175.883 182.413L175.881 182.414Z" fill="white"/>
<path d="M136.879 181.421C136.879 167.772 150.359 155.189 164.01 155.189C166.101 155.189 168.129 154.661 170.076 155.147C170.102 154.551 170.118 151.049 170.118 150.448V11.8662H51.9561L27.6923 36.7852V198.034H139.253C136.853 194.226 136.879 186.257 136.879 181.421Z" fill="url(#paint3_linear)"/>
<path d="M134.769 184.058C134.769 175.875 138.02 168.028 143.807 162.242C149.594 156.456 157.443 153.206 165.626 153.206C166.557 153.206 167.472 153.251 168.39 153.33V81.7949H29.9288V194.869H136.718C135.425 191.411 134.765 187.749 134.769 184.058Z" fill="white"/>
<path d="M168.288 82.8497H29.5147V36.7851L51.956 13.3164H168.288V82.8497Z" fill="white"/>
<path d="M159.645 27.3159H122.002V30.1875H159.645V27.3159Z" fill="#E0E0E0"/>
<path d="M159.645 37.8638H122.002V40.7354H159.645V37.8638Z" fill="#E0E0E0"/>
<path d="M159.645 48.4114H122.002V51.283H159.645V48.4114Z" fill="#E0E0E0"/>
<path opacity="0.5" d="M159.645 58.959H122.002V61.8306H159.645V58.959Z" fill="#6C63FF"/>
<path d="M159.645 69.5068H122.002V72.3785H159.645V69.5068Z" fill="#E0E0E0"/>
<path d="M159.645 80.0547H122.002V82.9263H159.645V80.0547Z" fill="#E0E0E0"/>
<path opacity="0.5" d="M87.6791 102.469H50.036V105.34H87.6791V102.469Z" fill="#6C63FF"/>
<path d="M87.6791 113.95H50.036V116.821H87.6791V113.95Z" fill="#E0E0E0"/>
<path opacity="0.5" d="M148.294 108.209H50.036V111.081H148.294V108.209Z" fill="#69F0AE"/>
<path opacity="0.5" d="M87.6791 130.217H50.036V133.089H87.6791V130.217Z" fill="#6C63FF"/>
<path d="M87.6791 141.701H50.036V144.572H87.6791V141.701Z" fill="#E0E0E0"/>
<path d="M148.294 135.958H50.036V138.829H148.294V135.958Z" fill="#E0E0E0"/>
<path opacity="0.5" d="M87.6791 157.968H50.036V160.84H87.6791V157.968Z" fill="#6C63FF"/>
<path d="M87.6791 169.449H50.036V172.321H87.6791V169.449Z" fill="#E0E0E0"/>
<path d="M130.584 163.708H50.036V166.58H130.584V163.708Z" fill="#E0E0E0"/>
<path d="M109.451 85.9641H40.8792V26.1057L43.2528 23.2051H48.7253H109.451V85.9641Z" fill="#4746A3"/>
<path d="M28.9872 37.3125H52.4835V12.7891L28.9872 37.3125Z" fill="url(#paint4_linear)"/>
<path d="M29.5147 36.7851H51.956V13.3164L29.5147 36.7851Z" fill="#FCFCFC"/>
<defs>
<linearGradient id="paint0_linear" x1="71.2088" y1="186.167" x2="71.2088" y2="0" gradientUnits="userSpaceOnUse">
<stop stop-color="#B3B3B3" stop-opacity="0.25"/>
<stop offset="0.54" stop-color="#B3B3B3" stop-opacity="0.1"/>
<stop offset="1" stop-color="#B3B3B3" stop-opacity="0.05"/>
</linearGradient>
<linearGradient id="paint1_linear" x1="1163.42" y1="2367.44" x2="1163.42" y2="86.7549" gradientUnits="userSpaceOnUse">
<stop stop-color="#B3B3B3" stop-opacity="0.25"/>
<stop offset="0.54" stop-color="#B3B3B3" stop-opacity="0.1"/>
<stop offset="1" stop-color="#B3B3B3" stop-opacity="0.05"/>
</linearGradient>
<linearGradient id="paint2_linear" x1="165.592" y1="210" x2="165.592" y2="157.193" gradientUnits="userSpaceOnUse">
<stop stop-color="#808080" stop-opacity="0.251"/>
<stop offset="0.54" stop-color="#808080" stop-opacity="0.122"/>
<stop offset="1" stop-color="#808080" stop-opacity="0.102"/>
</linearGradient>
<linearGradient id="paint3_linear" x1="87049.7" y1="149469" x2="87049.7" y2="18034.7" gradientUnits="userSpaceOnUse">
<stop stop-color="#B3B3B3" stop-opacity="0.25"/>
<stop offset="0.54" stop-color="#B3B3B3" stop-opacity="0.1"/>
<stop offset="1" stop-color="#B3B3B3" stop-opacity="0.05"/>
</linearGradient>
<linearGradient id="paint4_linear" x1="3658.22" y1="3482.86" x2="3658.22" y2="1202.18" gradientUnits="userSpaceOnUse">
<stop stop-color="#B3B3B3" stop-opacity="0.25"/>
<stop offset="0.54" stop-color="#B3B3B3" stop-opacity="0.1"/>
<stop offset="1" stop-color="#B3B3B3" stop-opacity="0.05"/>
</linearGradient>
</defs>
</svg>
