<svg width="151" height="126" viewBox="0 0 151 126" fill="none" xmlns="http://www.w3.org/2000/svg">
<path d="M32.2712 121L134.034 108.437C137.024 108.437 131.921 104.157 134.034 102.155C93.5657 86.4373 129.687 98.7051 129.687 95.8735L123.166 70.747L129.687 51.9021C129.687 49.0705 118.758 53.9043 116.644 51.9021C114.531 49.8998 132.676 32.0294 129.687 32.0294L81.1133 21.3529L61.877 3.13177C60.8296 2.13838 59.5856 1.35043 58.2163 0.813042C56.847 0.27565 55.3792 -0.000635303 53.897 1.09692e-06H32.2712C29.2819 1.09692e-06 26.415 1.12484 24.3013 3.12707C22.1875 5.12929 21 7.8449 21 10.6765V110.324C21 113.155 22.1875 115.871 24.3013 117.873C26.415 119.875 29.2819 121 32.2712 121Z" fill="black"/>
<path d="M11.325 121H139.675C142.679 121 145.559 119.875 147.683 117.873C149.807 115.871 151 113.155 151 110.324V32.0294C151 29.1978 149.807 26.4822 147.683 24.48C145.559 22.4778 142.679 21.3529 139.675 21.3529H60.4L41.072 3.13177C40.0196 2.13838 38.7697 1.35043 37.3938 0.813042C36.0179 0.27565 34.5432 -0.000635303 33.0539 1.09692e-06H11.325C8.32142 1.09692e-06 5.44086 1.12484 3.31702 3.12707C1.19317 5.12929 0 7.8449 0 10.6765V110.324C0 113.155 1.19317 115.871 3.31702 117.873C5.44086 119.875 8.32142 121 11.325 121Z" fill="black"/>
<path d="M0 111H151V115C151 121.075 146.075 126 140 126H11C4.92487 126 0 121.075 0 115V111Z" fill="black"/>
<path d="M0 109H151V110C151 116.075 146.075 121 140 121H11C4.92487 121 0 116.075 0 110V109Z" fill="black"/>
</svg>
