<svg width="151" height="126" viewBox="0 0 151 126" fill="none" xmlns="http://www.w3.org/2000/svg">
<path d="M32.2712 117L134.034 104.852C137.024 104.852 131.921 100.714 134.034 98.7781C93.5657 83.5799 129.687 95.4421 129.687 92.7041L123.166 68.4082L129.687 50.1863C129.687 47.4483 118.758 52.1223 116.644 50.1863C114.531 48.2503 132.676 30.9706 129.687 30.9706L81.1133 20.6471L61.877 3.02824C60.8296 2.06769 59.5856 1.30579 58.2163 0.786164C56.847 0.266537 55.3792 -0.000614301 53.897 1.06066e-06H32.2712C29.2819 1.06066e-06 26.415 1.08765 24.3013 3.02369C22.1875 4.95973 21 7.58556 21 10.3235V106.676C21 109.414 22.1875 112.04 24.3013 113.976C26.415 115.912 29.2819 117 32.2712 117Z" fill="black" fill-opacity="0.5"/>
<path d="M11.325 118H139.675C142.679 118 145.559 116.903 147.683 114.95C149.807 112.998 151 110.35 151 107.588V31.2353C151 28.4739 149.807 25.8257 147.683 23.8731C145.559 21.9205 142.679 20.8235 139.675 20.8235H60.4L41.072 3.05412C40.0196 2.08536 38.7697 1.31695 37.3938 0.792884C36.0179 0.268815 34.5432 -0.000619552 33.0539 1.06972e-06H11.325C8.32142 1.06972e-06 5.44086 1.09695 3.31702 3.04954C1.19317 5.00212 0 7.65039 0 10.4118V107.588C0 110.35 1.19317 112.998 3.31702 114.95C5.44086 116.903 8.32142 118 11.325 118Z" fill="white"/>
<path d="M0 108H151V115C151 121.075 146.075 126 140 126H11C4.92487 126 0 121.075 0 115V108Z" fill="black" fill-opacity="0.5"/>
<path d="M0 108H151V109C151 115.075 146.075 120 140 120H11C4.92487 120 0 115.075 0 109V108Z" fill="white"/>
</svg>
