<svg width="150" height="126" viewBox="0 0 150 126" fill="none" xmlns="http://www.w3.org/2000/svg">
<g clip-path="url(#clip0)">
<path d="M12.037 126H137.963C140.91 126 143.736 124.833 145.82 122.756C147.903 120.678 149.074 117.861 149.074 114.923V33.6923C149.074 30.7545 147.903 27.9371 145.82 25.8598C143.736 23.7824 140.91 22.6154 137.963 22.6154H60.1852L41.2222 3.71078C40.1897 2.68013 38.9633 1.86263 37.6135 1.30509C36.2636 0.747537 34.8167 0.460889 33.3555 0.461549H12.037C9.09016 0.461549 6.26401 1.62858 4.18027 3.7059C2.09653 5.78323 0.925903 8.60069 0.925903 11.5385V114.923C0.925903 117.861 2.09653 120.678 4.18027 122.756C6.26401 124.833 9.09016 126 12.037 126Z" fill="#85ADBB" fill-opacity="0.25"/>
<path d="M88.1047 73.3246H75.9253V61.1827C75.9106 60.6557 75.6903 60.1552 75.3112 59.7877C74.9321 59.4201 74.4242 59.2145 73.8954 59.2145C73.3666 59.2145 72.8587 59.4201 72.4796 59.7877C72.1005 60.1552 71.8802 60.6557 71.8655 61.1827V73.3246H59.6861C59.1575 73.3393 58.6554 73.5589 58.2868 73.9368C57.9181 74.3147 57.7118 74.8211 57.7118 75.3483C57.7118 75.8755 57.9181 76.3818 58.2868 76.7598C58.6554 77.1377 59.1575 77.3573 59.6861 77.3719H71.8655V89.5139C71.858 89.7844 71.9049 90.0536 72.0035 90.3057C72.1021 90.5578 72.2504 90.7877 72.4397 90.9816C72.6289 91.1756 72.8552 91.3298 73.1053 91.4351C73.3553 91.5404 73.624 91.5946 73.8954 91.5946C74.1668 91.5946 74.4355 91.5404 74.6855 91.4351C74.9356 91.3298 75.1619 91.1756 75.3511 90.9816C75.5404 90.7877 75.6887 90.5578 75.7873 90.3057C75.8859 90.0536 75.9328 89.7844 75.9253 89.5139V77.3719H88.1047C88.3761 77.3795 88.6461 77.3327 88.899 77.2344C89.1519 77.1361 89.3824 76.9882 89.577 76.7995C89.7716 76.6109 89.9262 76.3852 90.0318 76.136C90.1374 75.8867 90.1919 75.6189 90.1919 75.3483C90.1919 75.0777 90.1374 74.8099 90.0318 74.5606C89.9262 74.3113 89.7716 74.0857 89.577 73.897C89.3824 73.7084 89.1519 73.5605 88.899 73.4622C88.6461 73.3639 88.3761 73.3171 88.1047 73.3246Z" fill="#85ADBB"/>
</g>
<defs>
<clipPath id="clip0">
<rect width="150" height="126" fill="white"/>
</clipPath>
</defs>
</svg>
