<svg width="151" height="126" viewBox="0 0 151 126" fill="none" xmlns="http://www.w3.org/2000/svg">
<path d="M32.1676 126L134.243 112.918C137.241 112.918 132.122 108.461 134.243 106.376C93.6499 90.0091 129.882 102.784 129.882 99.8352L123.341 73.6704L129.882 54.0468C129.882 51.0982 118.92 56.1317 116.799 54.0468C114.679 51.9618 132.88 33.3529 129.882 33.3529L81.1593 22.2353L61.8641 3.26118C60.8135 2.22674 59.5657 1.40624 58.1922 0.846638C56.8186 0.28704 55.3464 -0.000661555 53.8596 1.14225e-06H32.1676C29.1691 1.14225e-06 26.2934 1.17132 24.1732 3.25628C22.053 5.34125 20.8618 8.16906 20.8618 11.1176V114.882C20.8618 117.831 22.053 120.659 24.1732 122.744C26.2934 124.829 29.1691 126 32.1676 126Z" fill="#BABABA" fill-opacity="0.5"/>
<path d="M11.3058 126H139.438C142.436 126 145.312 124.829 147.432 122.744C149.553 120.659 150.744 117.831 150.744 114.882V33.3529C150.744 30.4044 149.553 27.5765 147.432 25.4916C145.312 23.4066 142.436 22.2353 139.438 22.2353H60.2975L41.0023 3.26118C39.9517 2.22674 38.7039 1.40624 37.3304 0.846638C35.9568 0.28704 34.4846 -0.000661555 32.9978 1.14225e-06H11.3058C8.3073 1.14225e-06 5.43163 1.17132 3.31139 3.25628C1.19114 5.34125 0 8.16906 0 11.1176V114.882C0 117.831 1.19114 120.659 3.31139 122.744C5.43163 124.829 8.3073 126 11.3058 126Z" fill="white"/>
</svg>
