<svg width="248" height="194" viewBox="0 0 248 194" fill="none" xmlns="http://www.w3.org/2000/svg">
<g clip-path="url(#clip0)">
<path opacity="0.1" d="M86.9943 190.243C110.886 190.243 130.254 186.574 130.254 182.05C130.254 177.525 110.886 173.857 86.9943 173.857C63.1024 173.857 43.7342 177.525 43.7342 182.05C43.7342 186.574 63.1024 190.243 86.9943 190.243Z" fill="#6C63FF"/>
<path opacity="0.1" d="M144.09 27.3589C128.191 26.8088 113.049 21.6759 98.5892 16.0617C84.1299 10.4475 69.8081 4.22911 54.29 1.255C44.309 -0.658158 32.8933 -0.930764 24.853 4.4133C17.1124 9.57072 14.6116 18.4489 13.2678 26.6934C12.2557 32.897 11.6613 39.4273 14.4323 45.2355C16.3582 49.2681 19.7728 52.6573 22.136 56.5204C30.3582 69.9592 24.5459 86.5317 15.6384 99.6536C11.4623 105.808 6.61055 111.688 3.38509 118.233C0.159616 124.778 -1.33152 132.303 1.49107 138.997C4.28664 145.628 10.9513 150.599 18.1711 154.099C32.8344 161.209 50.1065 163.242 66.961 164.396C104.259 166.946 141.754 165.843 179.15 164.735C192.99 164.328 206.889 163.913 220.504 161.774C228.065 160.585 235.869 158.699 241.36 154.145C248.327 148.367 250.054 138.582 245.384 131.337C237.552 119.181 215.905 116.162 210.424 103.119C207.413 95.9379 210.505 87.9414 214.885 81.2834C224.279 66.9974 240.023 54.4648 240.851 38.1379C241.421 26.9242 233.853 15.6933 222.15 10.3861C209.884 4.82344 192.872 5.52338 183.827 14.7306C174.504 24.2006 158.129 27.8476 144.09 27.3589Z" fill="#6C63FF"/>
<path d="M131.456 88.8402L123.931 83.7687L127.727 78.1201L107.853 76.5361L100.712 82.0569L91.7723 77.0469L84.3167 77.9433L84.2282 75.9786C84.1359 73.9303 83.9301 71.8888 83.6116 69.8633C83.6436 69.2494 83.6657 68.5445 83.6632 67.7783C83.6632 64.5487 83.2259 60.2681 81.3049 57.4143L81.7471 53.4406L78.1605 49.2042C78.7365 48.0572 79.3932 46.9525 80.1258 45.8985C80.2486 45.7217 80.3714 45.5498 80.5041 45.3828C85.1593 45.0463 88.8318 41.22 88.8318 36.5415C88.8318 36.3254 88.8318 36.1093 88.8073 35.8956C88.8073 35.8096 88.7901 35.7212 88.7802 35.6353C89.2347 35.8809 89.6941 36.1265 90.1535 36.372C90.2394 36.4948 90.3377 36.6176 90.4458 36.7625L90.4679 36.7896L90.6055 36.959L90.6497 37.0106C90.6988 37.0695 90.7504 37.126 90.802 37.185L90.8364 37.2242C90.9666 37.3691 91.1041 37.5165 91.2515 37.6614C91.2691 37.6757 91.2855 37.6913 91.3007 37.7081L91.4849 37.88L91.5365 37.9266C91.6937 38.0666 91.8608 38.2017 92.0278 38.3294L92.0819 38.3687L92.2931 38.5136L92.3619 38.5578C92.443 38.6069 92.5265 38.6585 92.6076 38.7052L92.637 38.7224C92.7328 38.7739 92.8311 38.823 92.9294 38.8697L92.9785 38.8894C93.062 38.9254 93.1439 38.9598 93.2242 38.9925L93.3003 39.0195C93.3863 39.049 93.4698 39.076 93.5582 39.1006L93.6123 39.1153C93.7204 39.1423 93.8285 39.1644 93.939 39.1816H93.9513C94.0554 39.1984 94.1604 39.2091 94.2657 39.2135H94.337C94.4311 39.2185 94.5254 39.2185 94.6195 39.2135H94.6809C94.7987 39.2068 94.916 39.1928 95.0322 39.1718C95.5818 39.0995 96.1096 38.9103 96.5798 38.6168C96.6995 38.5367 96.8057 38.438 96.8943 38.3245C97.3856 37.681 96.8451 36.9762 96.8451 36.9762C96.6535 36.5194 95.4105 36.1977 95.4105 36.1977C95.4105 36.1977 91.48 34.5571 91.48 33.2506C91.48 31.944 90.4974 25.1657 80.3542 23.616C80.3542 23.616 73.7559 23.2452 71.9012 26.7768L71.8619 27.1894C71.3165 27.5308 70.8645 28.216 70.3265 28.4173C70.0941 28.4673 69.8699 28.5499 69.6608 28.6629V28.6163C69.5987 28.6706 69.5478 28.7365 69.5109 28.8103C69.3954 29.0402 69.3261 29.2905 69.307 29.5471C69.2517 29.8605 69.1428 30.162 68.9852 30.4386C68.9413 30.5171 68.8921 30.5926 68.8378 30.6645L68.7961 30.7308C69.0813 30.753 69.3677 30.7067 69.6313 30.5957C69.5898 30.932 69.5073 31.2619 69.3857 31.5781C69.5418 31.5831 69.6961 31.5432 69.8303 31.4631C69.9644 31.383 70.0727 31.2661 70.1423 31.1262V31.1066L70.1742 31.0624C70.236 30.9487 70.287 30.8294 70.3265 30.7063L70.2995 30.7357C70.3486 30.5761 70.3928 30.414 70.4469 30.2568C70.4717 30.1683 70.5124 30.085 70.5673 30.0112C70.6328 29.9451 70.713 29.8954 70.8013 29.866C70.8897 29.8365 70.9837 29.8282 71.0758 29.8418L70.975 31.971H71.0193C70.9601 32.1259 70.8878 32.2755 70.8031 32.418C70.4543 32.9829 69.8205 33.3685 69.5871 33.9874C69.4865 34.2858 69.448 34.6018 69.4741 34.9157C69.4741 35.0999 69.4962 35.2865 69.5109 35.4707V35.456C69.5453 35.9472 69.5552 36.4138 69.2899 36.8092C69.1081 37.0793 68.8157 37.2832 68.715 37.5902C68.6872 37.6757 68.6747 37.7655 68.6782 37.8554C68.6979 38.1245 68.7541 38.3898 68.8452 38.6438C68.8463 38.6389 68.8463 38.6339 68.8452 38.629C68.9065 38.8159 68.9208 39.0149 68.887 39.2086C68.7764 39.6998 68.1795 40.1099 68.209 40.579C68.2073 40.6407 68.2164 40.7022 68.236 40.7608C68.3508 40.9899 68.5497 41.1658 68.7912 41.2519C69.1699 41.4673 69.6049 41.5631 70.0391 41.527C70.2018 41.4976 70.3592 41.4438 70.5058 41.3674C70.3339 41.7628 70.157 42.1533 69.9777 42.5241C69.9507 42.583 69.9212 42.642 69.8917 42.7009C69.8917 42.7009 68.3735 41.6866 67.5113 43.7545C67.2596 44.1842 67.0795 44.6521 66.9782 45.1397C66.935 45.3347 66.8742 45.5254 66.7964 45.7094C66.4136 46.3573 65.8407 46.8718 65.1554 47.183C63.3965 47.9885 56.2922 56.847 56.1669 59.1408C56.1054 60.0362 55.954 60.9232 55.7149 61.7883C55.1556 63.8256 55.0119 65.9545 55.2923 68.0484C55.3801 68.7251 55.5256 69.3931 55.7272 70.0451C56.4813 72.3364 56.9849 76.6122 56.9849 76.6122L57.8005 84.034C57.7702 85.0583 57.8146 86.0835 57.9332 87.1014C57.1004 88.0518 53.757 92.0132 55.0344 93.0914C56.017 93.9411 57.7366 93.8011 58.7021 93.6268C57.8889 95.6382 56.6091 99.1354 56.4396 101.537C56.1939 105.091 56.8596 109.799 57.9135 111.607C58.9674 113.414 62.4803 118.051 62.4803 118.051C62.4803 118.051 62.3157 124.412 63.571 126.723C64.8263 129.034 65.3323 133.828 65.3323 133.828C65.3323 133.828 66.5041 137.875 65.917 139.363C65.3299 140.852 67.0052 142.089 65.2463 143.079C63.4874 144.069 61.2372 166.376 61.2372 166.376C61.2372 166.376 60.3308 180.996 61.2372 181.74C61.2857 181.775 61.3376 181.806 61.392 181.831V186.743C61.392 186.743 60.7631 187.774 63.3204 187.983C65.0719 188.123 70.0366 188.44 72.9821 188.624L75.2642 188.766C75.2642 188.766 80.6687 189.842 83.0564 188.766C85.4442 187.691 89.6769 187.715 89.048 184.874C88.9646 184.487 88.8529 184.107 88.7139 183.737C88.0236 181.973 86.8518 181.772 84.6925 181.281C84.5672 181.254 84.4469 181.229 84.3363 181.21C82.0615 180.814 81.3147 181.873 80.0398 180.495C78.9319 179.304 75.4042 177.97 74.203 177.548C74.2325 177.459 74.2693 177.373 74.2988 177.283C73.9586 177.225 73.6422 177.071 73.3874 176.838L76.6423 177.044L78.5806 177.165C78.5806 177.165 83.1743 178.081 85.2133 177.165C87.2522 176.249 90.8388 176.273 90.3033 173.859C90.2328 173.53 90.1383 173.207 90.0208 172.891C89.4337 171.393 88.4363 171.229 86.6013 170.814C86.4956 170.792 86.3974 170.769 86.2991 170.752C84.3658 170.416 83.732 171.315 82.6486 170.146C81.7201 169.149 78.7894 168.031 77.7355 167.65C77.7355 167.105 76.9985 166.329 76.5343 165.551C75.9889 164.642 76.9961 161.462 76.9961 161.462L77.5709 148.266C77.7898 148.168 78.0214 148.102 78.2588 148.069C78.2588 148.069 80.8578 145.589 80.2707 142.946C80.1511 142.147 80.0887 141.34 80.084 140.532C80.9389 139.739 82.1156 138.568 82.4497 137.845C82.995 136.669 82.4497 130.969 82.4497 130.969V109.173L86.7978 109.612L90.743 110.018L91.9443 110.14L95.8895 110.538L104.957 111.454L113.127 109.907L116.662 109.239L123.931 107.864V90.0829L131.456 88.8402ZM71.6113 29.9204L71.1052 29.8663C71.2723 29.8737 71.4492 29.9056 71.6113 29.9204Z" fill="url(#paint0_linear)"/>
<path d="M113.82 100.385C111.363 103.9 102.532 102.038 102.532 102.038L95.6881 95.6357L94.7669 94.7688L96.312 91.4877C96.312 91.4877 96.8034 91.6227 97.646 91.8634C102.07 93.1479 115.893 97.431 113.82 100.385Z" fill="#EFB7B9"/>
<path opacity="0.1" d="M97.641 91.8634C97.3389 92.9146 96.511 94.4888 95.6881 95.6357L94.7669 94.7688L96.312 91.4877C96.312 91.4877 96.8083 91.6227 97.641 91.8634Z" fill="black"/>
<path d="M74.1686 54.8627C74.1686 54.8627 67.8602 57.66 68.1697 64.5292C68.3924 68.9546 68.8747 73.3632 69.6141 77.7322C69.6141 77.7322 68.3244 88.0691 73.6945 90.7338C79.0645 93.3985 84.0342 95.5891 84.0342 95.5891C84.0342 95.5891 92.4356 96.4929 93.4797 96.8662C94.5237 97.2395 97.786 91.532 97.1842 90.6429C96.5823 89.7539 88.8711 87.8898 87.8885 86.4065C86.9059 84.9231 84.6336 84.007 84.6336 84.007C84.6336 84.007 82.2875 82.5875 82.1279 81.3055C81.9682 80.0235 82.5872 79.0682 82.7445 78.5058C82.9017 77.9434 83.2997 72.5134 83.2997 72.5134C83.2997 72.5134 85.9478 53.1853 74.1686 54.8627Z" fill="#DCE6F2"/>
<path opacity="0.1" d="M78.3325 77.4497C78.3325 77.4497 69.678 78.8987 70.5157 81.9268C70.5157 81.9268 73.6576 78.658 78.3325 77.4497Z" fill="black"/>
<path opacity="0.1" d="M78.3988 78.6752C78.3988 78.6752 73.6404 82.558 74.5715 82.7569C75.5025 82.9558 78.3988 78.6752 78.3988 78.6752Z" fill="black"/>
<path opacity="0.1" d="M80.6858 80.0284C80.6858 80.0284 79.4109 82.6391 80.1945 82.4622C80.9782 82.2854 80.6858 80.0284 80.6858 80.0284Z" fill="black"/>
<path opacity="0.1" d="M97.9604 92.1409L97.4347 91.9911C97.5846 91.4999 97.6263 91.102 97.5035 90.9178C96.9016 90.0288 89.1954 88.1672 88.2152 86.6814C87.2351 85.1956 84.9603 84.282 84.9603 84.282C84.9603 84.282 82.6143 82.8624 82.4546 81.5805C82.2949 80.2985 82.914 79.3431 83.0712 78.7807C83.2284 78.2183 83.6264 72.7858 83.6264 72.7858C83.6264 72.7858 86.2672 53.4602 74.4879 55.1376C74.4879 55.1376 68.1795 57.9374 68.4866 64.8066C68.7094 69.2321 69.1925 73.6407 69.9335 78.0096C69.9335 78.0096 68.6438 88.3465 74.0138 91.0112C79.3839 93.6758 84.3535 95.8665 84.3535 95.8665C84.3535 95.8665 92.7525 96.7678 93.799 97.1436C94.1945 97.286 94.9094 96.5517 95.6095 95.5423L96.0074 95.9132L102.851 102.313C102.851 102.313 111.683 104.177 114.139 100.663C116.215 97.706 102.395 93.4229 97.9604 92.1409Z" fill="black"/>
<path d="M70.5378 29.0804C70.2973 29.1274 70.067 29.2164 69.8573 29.3432C69.6117 29.5471 69.6117 29.8958 69.5503 30.2003C69.4781 30.624 69.3101 31.0255 69.0589 31.3743C69.3385 31.3948 69.6189 31.3485 69.877 31.2392C69.8349 31.5753 69.7524 31.9052 69.6313 32.2216C69.7844 32.2254 69.9353 32.1851 70.066 32.1054C70.1968 32.0257 70.3017 31.91 70.3683 31.7721C70.4983 31.4954 70.6011 31.2067 70.6754 30.9101C70.6984 30.8214 70.7385 30.738 70.7933 30.6645C71.0193 30.3968 71.4394 30.5171 71.7882 30.5515C72.0785 30.576 72.3701 30.5224 72.6327 30.3963C72.8953 30.2702 73.1194 30.0762 73.2818 29.8344C73.6527 29.272 73.6748 27.8328 72.7905 27.6806C71.8668 27.5283 71.292 28.8005 70.5378 29.0804Z" fill="#965D7B"/>
<g opacity="0.1">
<path opacity="0.1" d="M69.8327 29.6454C69.8548 29.525 69.8696 29.3998 69.8966 29.2794C69.6632 29.4833 69.6509 29.8295 69.5895 30.1365C69.5586 30.3137 69.51 30.4872 69.4446 30.6547C69.638 30.3465 69.7698 30.0037 69.8327 29.6454Z" fill="black"/>
<path opacity="0.1" d="M69.9113 31.6739C70.0337 31.3579 70.1162 31.0279 70.157 30.6915C69.911 30.795 69.6447 30.8412 69.3783 30.8266C69.3007 30.9993 69.2061 31.1639 69.0958 31.3178C69.3743 31.3393 69.654 31.2939 69.9113 31.1852C69.8705 31.5215 69.788 31.8515 69.6657 32.1675C69.8187 32.1711 69.9695 32.1307 70.1002 32.051C70.2308 31.9713 70.3358 31.8557 70.4027 31.7181C70.4639 31.6065 70.5133 31.4888 70.55 31.3669C70.478 31.4676 70.3817 31.5485 70.27 31.6022C70.1584 31.6558 70.035 31.6805 69.9113 31.6739Z" fill="black"/>
<path opacity="0.1" d="M72.0682 30.0039C71.7194 29.9695 71.2968 29.8492 71.0708 30.1169C71.017 30.191 70.9771 30.2742 70.9529 30.3625C70.9308 30.4263 70.9112 30.4926 70.894 30.559C71.1273 30.3748 71.5057 30.473 71.8226 30.5049C72.1128 30.5286 72.4041 30.4747 72.6665 30.3487C72.929 30.2226 73.1532 30.0291 73.3161 29.7878C73.3906 29.6685 73.4461 29.5385 73.4807 29.4022C73.3125 29.6104 73.0957 29.7741 72.8495 29.879C72.6032 29.9839 72.3349 30.0268 72.0682 30.0039Z" fill="black"/>
</g>
<path d="M77.9321 49.3639L81.6783 53.868L81.1895 58.4139L76.662 51.3286L77.9321 49.3639Z" fill="#DCE6F2"/>
<path opacity="0.1" d="M81.6759 53.868L81.2165 58.1438L81.187 58.4139L77.1017 52.0187L76.662 51.3286L76.7897 51.1297L77.9296 49.3639L78.1826 49.6684L81.6759 53.868Z" fill="black"/>
<path d="M83.6214 43.2659C82.3538 43.6294 81.1427 44.877 80.0889 46.3923C79.3766 47.4378 78.7395 48.5326 78.1826 49.6685C77.8362 50.361 77.5316 51.0266 77.2786 51.6062L77.1017 52.0188C76.6743 53.0282 76.436 53.7035 76.436 53.7035C76.436 53.7035 66.7326 46.4095 68.2679 45.9183C68.7838 45.7537 69.4618 44.6486 70.1324 43.2561L70.216 43.0793C70.6409 42.1853 71.0586 41.1882 71.4295 40.25C72.1886 38.3221 72.7511 36.6472 72.7511 36.6472C72.7511 36.6472 87.4905 42.1607 83.6214 43.2659Z" fill="#EFB7B9"/>
<path d="M89.4263 36.2369C89.4263 36.2369 91.6667 40.2892 94.676 39.7366C97.6853 39.184 96.4471 37.5607 96.4471 37.5607L89.4263 36.2369Z" fill="#444053"/>
<path d="M85.0855 176.506C83.1006 177.413 78.6125 176.506 78.6125 176.506L76.7209 176.389C74.2644 176.231 70.1521 175.966 68.6978 175.848C66.5753 175.674 67.0961 174.804 67.0961 174.804V169.551L77.394 166.943C77.394 166.943 81.4646 168.336 82.5799 169.551C83.6386 170.71 84.2577 169.819 86.1468 170.153C86.2401 170.17 86.3384 170.19 86.4416 170.214C88.2349 170.625 89.2077 170.787 89.7825 172.272C89.898 172.585 89.9908 172.905 90.0601 173.23C90.5907 175.622 87.068 175.605 85.0855 176.506Z" fill="#A36468"/>
<path opacity="0.1" d="M89.7825 172.272C89.4135 172.503 89.0256 172.702 88.623 172.867C87.2719 173.483 85.9871 174.235 84.6213 174.817C83.2554 175.399 81.7839 175.814 80.3051 175.703C79.5312 175.647 78.7402 175.458 78.0008 175.679C77.5435 175.855 77.1128 176.094 76.7209 176.389C74.2644 176.231 70.1521 175.966 68.6978 175.848C66.5753 175.674 67.0961 174.804 67.0961 174.804V174.19C67.1723 174.19 67.2583 174.168 67.3565 174.161C67.8649 174.153 68.3711 174.228 68.855 174.385C69.9212 174.674 70.9824 174.959 72.0485 175.244C72.1362 174.913 72.2904 174.604 72.5015 174.334C72.7127 174.065 72.9765 173.841 73.2768 173.677C73.8854 173.354 74.5683 173.198 75.2568 173.223C76.9101 173.245 78.4749 174.028 80.1257 174.107C80.5873 174.149 81.0519 174.072 81.4744 173.881C81.7004 173.768 81.8994 173.604 82.1205 173.478C82.4743 173.307 82.8481 173.181 83.2333 173.103C84.3158 172.833 85.3787 172.49 86.4145 172.076C86.7093 171.961 87.0532 171.752 87.0139 171.437C86.9624 171.02 86.3064 170.971 86.1345 170.588C86.1041 170.519 86.0901 170.443 86.0935 170.368C86.0969 170.293 86.1177 170.219 86.1541 170.153C86.2475 170.17 86.3458 170.19 86.4489 170.214C88.2349 170.624 89.2076 170.787 89.7825 172.272Z" fill="black"/>
<path d="M82.9876 188C80.6539 189.066 75.3723 188 75.3723 188L73.1491 187.87C70.27 187.686 65.4208 187.379 63.7085 187.234C61.2102 187.028 61.8243 186.006 61.8243 186.006V179.815L73.9426 176.745C73.9426 176.745 78.7329 178.383 80.0447 179.815C81.2902 181.178 82.0099 180.129 84.243 180.522C84.3535 180.542 84.469 180.566 84.5893 180.593C86.6995 181.084 87.8443 181.269 88.5198 183.017C88.6566 183.384 88.7658 183.761 88.8465 184.144C89.4558 186.959 85.3214 186.937 82.9876 188Z" fill="#A36468"/>
<path opacity="0.1" d="M88.5149 183.017C88.0808 183.288 87.6248 183.522 87.1515 183.717C85.5621 184.442 84.0489 185.326 82.4423 186.011C80.8357 186.696 79.1038 187.182 77.3621 187.055C76.4532 186.988 75.5222 186.76 74.6599 187.025C74.1196 187.236 73.6112 187.52 73.1491 187.87C70.27 187.686 65.4208 187.379 63.7085 187.234C61.2102 187.028 61.8243 186.006 61.8243 186.006V185.284C61.9261 185.267 62.0285 185.256 62.1314 185.25C62.7299 185.239 63.326 185.327 63.8952 185.512L67.6513 186.524C67.7559 186.134 67.9391 185.769 68.1896 185.452C68.44 185.135 68.7526 184.872 69.1081 184.68C69.8241 184.298 70.6285 184.113 71.4393 184.144C73.3849 184.171 75.2249 185.092 77.168 185.186C77.7092 185.235 78.254 185.145 78.7501 184.923C79.0178 184.788 79.2414 184.594 79.5116 184.449C79.9271 184.246 80.3672 184.097 80.821 184.007C82.0878 183.687 83.332 183.284 84.5451 182.799C84.8915 182.661 85.2968 182.415 85.2501 182.047C85.1887 181.556 84.4174 181.497 84.2135 181.045C84.1791 180.963 84.1635 180.875 84.1677 180.787C84.172 180.698 84.196 180.612 84.238 180.534C84.3486 180.554 84.464 180.578 84.5844 180.605C86.6946 181.077 87.8394 181.268 88.5149 183.017Z" fill="black"/>
<path d="M77.706 145.515L77.0501 160.946C77.0501 160.946 76.0675 164.097 76.6006 164.998C77.1337 165.899 78.0328 166.798 77.706 167.331C77.3793 167.864 73.4488 173.626 72.1788 171.415C70.9087 169.205 69.6559 159.627 69.6559 159.627L70.8277 147.797L77.706 145.515Z" fill="#C64D61"/>
<path d="M80.5507 107.071L82.3735 109.507V130.696C82.3735 130.696 82.9066 136.345 82.3735 137.512C81.8404 138.678 79.1382 141.011 79.1382 141.011L76.8659 129.346L77.3572 117.005L80.5507 107.071Z" fill="#C64D61"/>
<path d="M82.3735 98.0327V109.494L80.3272 118.417C80.3272 118.417 79.6713 139.948 80.2437 142.566C80.816 145.184 78.2784 147.642 78.2784 147.642C78.2784 147.642 76.8045 147.807 76.8045 148.951C76.8045 150.096 74.3479 153.372 74.3479 153.372L74.429 159.757C74.429 159.757 75.4951 171.71 73.8566 174.002C72.2181 176.293 74.429 176.622 74.429 176.622C72.3827 183.334 62.5564 181.779 61.6696 181.043C60.7828 180.306 61.6696 165.816 61.6696 165.816C61.6696 165.816 63.8658 143.713 65.5853 142.73C67.3049 141.748 65.6689 140.52 66.2413 139.047C66.8136 137.573 65.6689 133.562 65.6689 133.562C65.6689 133.562 65.1776 128.813 63.9493 126.521C62.721 124.23 62.8831 117.926 62.8831 117.926C62.8831 117.926 59.4439 113.34 58.422 111.54C57.4001 109.74 56.7417 105.074 56.9874 101.552C57.1544 99.1723 58.4048 95.707 59.1983 93.7128C59.579 92.7574 59.8542 92.1385 59.8542 92.1385L60.0876 92.1999L73.5053 95.7119L82.3735 98.0327Z" fill="#E65870"/>
<path opacity="0.1" d="M83.6214 43.2658C82.3538 43.6292 81.1428 44.8768 80.0889 46.3921H79.8138C78.269 46.3932 76.7514 45.9866 75.4142 45.2134C74.077 44.4402 72.9677 43.3278 72.1984 41.9887C71.8769 41.4338 71.6182 40.8448 71.427 40.2327C72.1861 38.3048 72.7487 36.6299 72.7487 36.6299C72.7487 36.6299 87.4905 42.1606 83.6214 43.2658Z" fill="black"/>
<path d="M88.596 37.1261C88.5982 38.4699 88.2918 39.7962 87.7005 41.003C87.1091 42.2097 86.2486 43.2647 85.1852 44.0865C84.1218 44.9084 82.8838 45.4753 81.5667 45.7435C80.2496 46.0118 78.8885 45.9741 77.5883 45.6336C76.288 45.2931 75.0833 44.6587 74.0669 43.7794C73.0505 42.9 72.2496 41.7992 71.7258 40.5616C71.202 39.3241 70.9694 37.9829 71.0458 36.6412C71.1222 35.2996 71.5056 33.9935 72.1665 32.8233C72.4327 32.3479 72.7437 31.8989 73.0951 31.4824C73.6744 30.7924 74.3553 30.1946 75.1144 29.7092C76.3966 28.8947 77.8682 28.4265 79.3855 28.3506C80.9028 28.2746 82.4139 28.5935 83.771 29.276C85.1282 29.9585 86.2851 30.9813 87.1286 32.2444C87.9722 33.5076 88.4735 34.9679 88.5837 36.4827C88.5886 36.6988 88.596 36.9124 88.596 37.1261Z" fill="#EFB7B9"/>
<path opacity="0.1" d="M81.2164 58.1437L81.187 58.4138L77.1017 52.0285C76.6743 53.0378 76.436 53.7132 76.436 53.7132C76.436 53.7132 66.7326 46.4093 68.2679 45.9181C68.7838 45.7536 69.4618 44.6484 70.1324 43.2559L70.216 43.0791C70.9284 45.201 75.0677 49.4424 76.7897 51.1419C76.9887 51.3383 77.1533 51.5004 77.281 51.6183L77.5439 51.8639L77.6814 52.0014C78.3079 52.6473 80.9511 55.4962 81.2164 58.1437Z" fill="black"/>
<path d="M84.27 79.8098L83.8229 94.1941L83.7443 96.7556C83.7443 96.7556 78.4479 96.2644 73.5053 95.7241C69.5257 95.2894 65.7745 94.8203 65.1972 94.5453C64.4603 94.199 62.8807 93.9313 61.6352 93.7618C60.6722 93.6317 59.9156 93.5629 59.9156 93.5629C59.9156 93.5629 59.6331 93.6464 59.1983 93.725C58.2501 93.8969 56.5845 94.0369 55.6142 93.1945C54.3736 92.1164 57.6335 88.1992 58.4466 87.2586L58.6259 87.0547L58.3189 84.2182L57.5205 76.8627C57.5205 76.8627 57.0292 72.6263 56.2922 70.3545C56.0952 69.7087 55.953 69.0473 55.8672 68.3775C55.5934 66.3027 55.7336 64.1942 56.2799 62.1739C56.5133 61.3154 56.6614 60.436 56.7221 59.5485C56.8449 57.2768 63.7847 48.4969 65.5043 47.6987C66.2779 47.3381 66.9003 46.7176 67.2632 45.9452C67.383 45.7024 67.4729 45.4459 67.531 45.1814C68.2679 41.9887 70.1325 43.256 70.1325 43.256C70.582 45.7537 77.5415 52.365 77.5415 52.365L77.679 52.5025C78.3693 53.2098 81.4449 56.5302 81.2263 59.3643C81.1826 60.4192 81.3402 61.4727 81.6906 62.4686C83.1062 66.9248 83.92 71.5501 84.1103 76.2217L84.27 79.8098Z" fill="#DCE6F2"/>
<path opacity="0.1" d="M74.4094 62.729C74.4094 62.729 72.6897 66.9041 71.4 67.5794C70.1103 68.2548 75.0235 69.0039 74.4094 62.729Z" fill="black"/>
<path opacity="0.1" d="M75.699 70.5265C75.699 70.5265 71.7685 71.0177 71.7685 71.7544C71.7685 72.4912 75.699 70.5265 75.699 70.5265Z" fill="black"/>
<path opacity="0.1" d="M79.8138 75.3154C79.8138 75.3154 74.1023 87.4722 72.5055 87.8406C70.9087 88.209 79.8138 75.3154 79.8138 75.3154Z" fill="black"/>
<path opacity="0.1" d="M77.4333 52.9814L72.7094 55.0345L67.0077 46.4241C67.1275 46.1813 67.2174 45.9248 67.2754 45.6603C68.0124 42.4676 69.877 43.7349 69.877 43.7349C70.3265 46.2325 77.286 52.8439 77.286 52.8439L77.4333 52.9814Z" fill="black"/>
<path d="M77.679 52.4903L72.955 54.5435L67.2533 45.933C67.3732 45.6902 67.4631 45.4337 67.5211 45.1692C68.2581 41.9765 70.1226 43.2438 70.1226 43.2438C70.5722 45.7415 77.5316 52.3528 77.5316 52.3528L77.679 52.4903Z" fill="#DCE6F2"/>
<path opacity="0.1" d="M83.7443 96.7556C83.7443 96.7556 78.4479 96.2644 73.5053 95.7241L82.3735 98.045V100.746C81.9854 101.098 81.6488 101.279 81.4302 101.186C80.4083 100.756 72.0682 99.4056 72.0682 99.4056C72.0682 99.4056 67.2239 96.9496 61.9963 94.0025C61.8694 93.9323 61.7464 93.8552 61.6278 93.7717C61.0183 93.3579 60.4931 92.832 60.0802 92.222C59.1148 90.8246 58.6431 89.0293 58.4392 87.2684C58.3246 86.2593 58.2819 85.2432 58.3115 84.228C58.3368 83.0768 58.4419 81.9288 58.6259 80.7922C58.1204 76.3898 57.8743 71.9615 57.8889 67.5302C57.9504 60.6537 64.3988 58.1978 64.3988 58.1978C76.2518 57.154 72.5767 76.3101 72.5767 76.3101C72.5767 76.3101 71.8914 81.7132 71.7047 82.2657C71.518 82.8183 70.8473 83.7393 70.9382 85.0286C71.0291 86.318 73.2941 87.8603 73.2941 87.8603C73.2941 87.8603 75.505 88.8967 76.4164 90.4316C77.0796 91.5638 81.3884 93.0988 83.8229 94.1941L83.7443 96.7556Z" fill="black"/>
<path opacity="0.1" d="M87.7141 31.6739C87.7186 32.0784 87.6348 32.4791 87.4685 32.8478C87.3425 33.1488 87.1964 33.4409 87.0312 33.7221C86.7726 34.2396 86.4057 34.6952 85.9552 35.0582C85.3878 35.4634 84.6704 35.5764 83.99 35.7409C83.3095 35.9055 82.602 36.1682 82.2139 36.7478C82.0035 37.1204 81.8628 37.5282 81.7987 37.9512C81.7336 38.3739 81.5648 38.7738 81.3074 39.1153C81.1733 39.2821 80.9877 39.3996 80.7796 39.4494C80.5715 39.4991 80.3528 39.4784 80.1577 39.3904C79.9523 39.2519 79.7965 39.0514 79.7131 38.8182C79.433 38.187 79.3618 37.4871 79.2488 36.8068C79.1358 36.1265 78.9761 35.4266 78.5585 34.8789C78.1409 34.3312 77.4015 33.9702 76.7456 34.1839C76.526 34.2683 76.3258 34.3963 76.157 34.5601C75.9881 34.7238 75.8541 34.92 75.7629 35.1368C75.5814 35.5708 75.4567 36.0264 75.392 36.4924C75.0874 38.1592 74.7279 39.8161 74.3136 41.4632C74.3009 41.5307 74.2732 41.5945 74.2325 41.6498C74.1672 41.7149 74.079 41.7519 73.9868 41.753C73.4366 41.8267 72.9084 41.4411 72.3532 41.4828C72.296 41.4866 72.2393 41.4957 72.1837 41.5099C71.2861 39.9503 70.8897 38.1525 71.0484 36.3601C71.207 34.5678 71.9129 32.8675 73.0705 31.4897L73.1147 31.4774C73.4841 31.3464 73.8197 31.135 74.0974 30.8585C74.452 30.5038 74.7804 30.1237 75.08 29.7215L75.2765 29.4759C75.8412 28.7958 76.4844 28.1849 77.1926 27.656C77.386 27.4977 77.6078 27.3777 77.8461 27.3024C78.0501 27.2627 78.2591 27.256 78.4652 27.2827C79.3135 27.3845 80.1688 27.4166 81.0224 27.3785C81.6172 27.285 82.2167 27.2244 82.8182 27.1968C84.3732 27.241 85.6997 28.3388 86.6824 29.5422C87.2105 30.1586 87.6822 30.8684 87.7141 31.6739Z" fill="black"/>
<path d="M71.0193 33.0565C70.6778 33.6165 70.0612 33.9971 69.8303 34.6111C69.4913 35.5026 70.0637 36.6127 69.538 37.4084C69.3635 37.6761 69.0761 37.875 68.9779 38.182C68.8108 38.7002 69.2677 39.2528 69.1498 39.7857C69.0319 40.3187 68.3293 40.7681 68.516 41.2887C68.6264 41.5158 68.8199 41.6917 69.0565 41.7799C69.4287 41.9934 69.8571 42.0885 70.2848 42.0525C70.9554 41.942 71.4541 41.2838 72.1346 41.2347C72.6873 41.1954 73.2154 41.5785 73.7657 41.5073C73.8579 41.5041 73.9456 41.4664 74.0114 41.4017C74.0531 41.347 74.0809 41.2829 74.0924 41.2151C74.5051 39.5696 74.8654 37.9127 75.1733 36.2443C75.2361 35.7782 75.3599 35.3224 75.5418 34.8886C75.6337 34.6723 75.768 34.4765 75.9367 34.3129C76.1055 34.1492 76.3053 34.021 76.5244 33.9357C77.1803 33.7245 77.9173 34.0831 78.3374 34.6308C78.7574 35.1784 78.9171 35.8784 79.0301 36.5587C79.1431 37.2389 79.2144 37.9389 79.492 38.5701C79.5763 38.8041 79.7329 39.0054 79.9391 39.1447C80.3075 39.3584 80.8038 39.1889 81.0863 38.8697C81.3451 38.528 81.514 38.1269 81.5776 37.7031C81.6417 37.2809 81.7824 36.8739 81.9927 36.5022C82.3809 35.9226 83.0908 35.6598 83.7688 35.4952C84.4469 35.3307 85.1617 35.2153 85.7341 34.8101C86.1839 34.4475 86.5508 33.9928 86.8101 33.4765C87.1736 32.8429 87.5126 32.1552 87.4832 31.4258C87.4512 30.6301 86.9796 29.9203 86.476 29.3014C85.4933 28.098 84.1643 27.0002 82.6093 26.9585C82.0077 26.9836 81.4081 27.0443 80.8136 27.1402C79.9599 27.1786 79.1045 27.1458 78.2563 27.042C78.0501 27.0173 77.8412 27.0248 77.6373 27.0641C77.3986 27.1369 77.1772 27.2572 76.9863 27.4178C76.2773 27.9458 75.6333 28.5558 75.0677 29.2351C74.703 29.7186 74.3075 30.1779 73.8836 30.6104C73.6058 30.8873 73.2703 31.0995 72.901 31.2318C72.6553 31.3005 72.4097 31.2514 72.1763 31.3276C71.4516 31.556 71.3558 32.5015 71.0193 33.0565Z" fill="#965D7B"/>
<path opacity="0.1" d="M94.676 39.7342C92.7107 40.0952 91.082 38.5062 90.1805 37.347C89.9036 36.995 89.6516 36.624 89.4263 36.2369L96.172 37.5091L96.4447 37.5607C96.4447 37.5607 97.6852 39.184 94.676 39.7342Z" fill="black"/>
<g opacity="0.1">
<path opacity="0.1" d="M69.1498 39.0834C69.1773 38.7623 69.1285 38.4391 69.0073 38.1404C69.0073 38.1649 68.9852 38.1895 68.9778 38.2141C68.8722 38.5432 69.0147 38.8845 69.1056 39.2259C69.1251 39.18 69.1399 39.1323 69.1498 39.0834Z" fill="black"/>
<path opacity="0.1" d="M69.7345 35.063C69.7092 35.4026 69.7158 35.7438 69.7541 36.0822C69.7793 35.7426 69.7727 35.4014 69.7345 35.063Z" fill="black"/>
<path opacity="0.1" d="M86.7953 32.7668C86.5368 33.2842 86.1698 33.7399 85.7194 34.1028C85.1519 34.508 84.437 34.621 83.7541 34.7856C83.0712 34.9501 82.3661 35.2129 81.978 35.7925C81.768 36.1652 81.6273 36.573 81.5628 36.9959C81.4989 37.4196 81.33 37.8206 81.0715 38.1624C80.789 38.4817 80.2928 38.6536 79.9243 38.4375C79.7181 38.2982 79.5616 38.0969 79.4772 37.8628C79.1996 37.2317 79.1259 36.5342 79.0154 35.8514C78.9048 35.1687 78.7402 34.4712 78.3226 33.9235C77.905 33.3759 77.1656 33.0149 76.5097 33.2285C76.2904 33.3134 76.0903 33.4415 75.9215 33.6052C75.7527 33.7689 75.6186 33.9648 75.5271 34.1814C75.3452 34.6152 75.2213 35.071 75.1586 35.5371C74.8523 37.2055 74.492 38.8624 74.0777 40.5078C74.0662 40.5757 74.0384 40.6398 73.9966 40.6945C73.9308 40.7592 73.8432 40.7969 73.751 40.8001C73.2007 40.8713 72.6725 40.4882 72.1198 40.5275C71.4393 40.5766 70.9406 41.2348 70.27 41.3429C69.8422 41.3812 69.4131 41.286 69.0417 41.0702C68.871 40.9968 68.7178 40.888 68.5922 40.751C68.5347 40.8333 68.4966 40.9275 68.4809 41.0266C68.4652 41.1258 68.4721 41.2272 68.5013 41.3232C68.6095 41.5519 68.8038 41.7284 69.0417 41.8144C69.4131 42.0301 69.8422 42.1254 70.27 42.087C70.9406 41.9789 71.4393 41.3208 72.1198 41.2716C72.6725 41.2323 73.2007 41.6155 73.751 41.5442C73.8432 41.541 73.9308 41.5033 73.9966 41.4386C74.0384 41.3839 74.0662 41.3199 74.0777 41.252C74.4904 39.6147 74.8507 37.9578 75.1586 36.2812C75.2213 35.8151 75.3452 35.3593 75.5271 34.9256C75.6186 34.709 75.7527 34.513 75.9215 34.3493C76.0903 34.1856 76.2904 34.0575 76.5097 33.9727C77.1656 33.759 77.9026 34.12 78.3226 34.6677C78.7427 35.2154 78.9024 35.9153 79.0154 36.5956C79.1284 37.2759 79.1996 37.9758 79.4772 38.607C79.5616 38.8411 79.7181 39.0423 79.9243 39.1817C80.2928 39.3953 80.789 39.2259 81.0715 38.9066C81.33 38.5647 81.4989 38.1637 81.5628 37.74C81.6273 37.3171 81.768 36.9094 81.978 36.5366C82.3661 35.957 83.0761 35.6967 83.7541 35.5297C84.4321 35.3627 85.147 35.2522 85.7194 34.847C86.1698 34.484 86.5368 34.0284 86.7953 33.5109C87.1589 32.8798 87.4979 32.1921 87.4684 31.4627C87.4636 31.3689 87.4538 31.2755 87.439 31.1827C87.3204 31.7448 87.1025 32.2813 86.7953 32.7668Z" fill="black"/>
</g>
<path opacity="0.1" d="M87.4783 32.8405C88.1082 33.9603 88.4816 35.2059 88.5714 36.4875C86.3826 35.2596 84.324 33.9113 83.2849 33.4422C81.4744 32.6244 74.7041 32.7472 72.1591 32.8233C72.4253 32.3478 72.7363 31.8988 73.0877 31.4824C73.6692 30.7918 74.3526 30.1939 75.1144 29.7092C76.1231 29.0691 77.2519 28.6415 78.4316 28.4524C79.6113 28.2632 80.8172 28.3166 81.9756 28.6092C83.1339 28.9019 84.2204 29.4276 85.1687 30.1542C86.1169 30.8809 86.907 31.7933 87.4906 32.8356L87.4783 32.8405Z" fill="black"/>
<path opacity="0.1" d="M95.2901 38.6929C94.1085 39.0563 92.1801 38.3539 90.1805 37.347C89.9036 36.995 89.6516 36.624 89.4263 36.2369L96.172 37.5091C96.6191 37.8136 96.7321 38.2483 95.2901 38.6929Z" fill="black"/>
<path d="M80.337 24.3258C80.337 24.3258 73.8885 23.9575 72.0756 27.4571L71.7833 30.5589L71.292 30.5049L71.1937 32.6145C71.1937 32.6145 81.0494 32.1848 83.2923 33.1966C85.5351 34.2084 92.5044 39.3069 95.2975 38.4473C98.0906 37.5878 95.0518 36.7896 95.0518 36.7896C95.0518 36.7896 91.2073 35.1613 91.2073 33.8843C91.2073 32.6072 90.2542 25.8608 80.337 24.3258Z" fill="#444053"/>
<path opacity="0.1" d="M67.8994 139.312C67.8994 139.312 72.0142 143.303 73.7952 142.996C73.7952 142.996 68.7592 142.566 67.8994 139.312Z" fill="black"/>
<path opacity="0.1" d="M67.0396 141.161C67.0396 141.161 67.4081 143.214 68.3907 143.013C69.3734 142.811 67.0396 141.161 67.0396 141.161Z" fill="black"/>
<path opacity="0.1" d="M73.4881 175.475C73.4881 175.475 67.6464 180.019 68.6315 180.141C69.6166 180.264 73.4881 175.475 73.4881 175.475Z" fill="black"/>
<path d="M81.3025 85.3013L100.218 82.224V100.128L82.2458 99.187L81.3025 85.3013Z" fill="#6C63FF"/>
<path opacity="0.05" d="M81.3025 85.3013L100.218 82.224V100.128L82.2458 99.187L81.3025 85.3013Z" fill="black"/>
<path d="M100.218 82.224L122.902 83.921L121.647 99.5013L100.218 100.128V82.224Z" fill="#6C63FF"/>
<path opacity="0.1" d="M100.218 82.224L122.902 83.921L121.647 99.5013L100.218 100.128V82.224Z" fill="black"/>
<path d="M107.192 76.7595L100.218 82.2239L122.902 83.921L126.609 78.3289L107.192 76.7595Z" fill="#6C63FF"/>
<path d="M74.4536 79.3334L91.4825 77.2606L100.218 82.224L81.3025 85.3013L74.4536 79.3334Z" fill="#6C63FF"/>
<path d="M104.365 86.8731V111.351L95.5039 110.442L91.6495 110.05L90.4753 109.927L86.6234 109.531L81.3025 108.986V85.3013L100.216 86.5882L104.365 86.8731Z" fill="#6C63FF"/>
<path d="M122.902 83.921V107.793L115.8 109.156L112.346 109.819L104.365 111.351V86.873L122.902 83.921Z" fill="#6C63FF"/>
<path opacity="0.05" d="M122.902 83.921V107.793L115.8 109.156L112.346 109.819L104.365 111.351V86.873L122.902 83.921Z" fill="black"/>
<path d="M74.4536 90.4538L81.3025 85.3013L104.365 86.8731L100.97 92.5904L74.4536 90.4538Z" fill="#6C63FF"/>
<path opacity="0.1" d="M74.4536 90.4538L81.3025 85.3013L104.365 86.8731L100.97 92.5904L74.4536 90.4538Z" fill="white"/>
<path d="M122.902 83.921L104.365 86.873L110.398 92.2761L130.254 88.9458L122.902 83.921Z" fill="#6C63FF"/>
<path opacity="0.1" d="M122.902 83.921L104.365 86.873L110.398 92.2761L130.254 88.9458L122.902 83.921Z" fill="white"/>
<path opacity="0.1" d="M115.8 109.156L112.346 109.819V104.718L115.581 103.902L115.8 109.156Z" fill="white"/>
<path opacity="0.1" d="M95.5039 107.068V110.443L91.6495 110.05V107.068H95.5039Z" fill="white"/>
<path opacity="0.1" d="M90.4753 108.131V109.927L86.6234 109.531V108.131H90.4753Z" fill="white"/>
<path opacity="0.1" d="M102.046 105.278C99.4049 108.655 90.6841 106.321 90.6841 106.321L84.2037 99.5627L83.3242 98.6467L85.0438 95.454C85.0438 95.454 85.5351 95.6161 86.3556 95.901C90.6988 97.4187 104.269 102.436 102.046 105.278Z" fill="black"/>
<path d="M101.8 104.786C99.1592 108.163 90.4384 105.83 90.4384 105.83L83.958 99.0715L83.0786 98.1555L84.7981 94.9628C84.7981 94.9628 85.2895 95.1249 86.11 95.4097C90.4532 96.9275 104.023 101.945 101.8 104.786Z" fill="#EFB7B9"/>
<path opacity="0.1" d="M86.1001 95.4097C85.7414 96.4412 84.8301 97.9688 83.9482 99.0715L83.0687 98.1555L84.7883 94.9628C84.7883 94.9628 85.2821 95.1249 86.1001 95.4097Z" fill="black"/>
<path d="M64.6445 57.2154C64.6445 57.2154 58.196 59.6713 58.1346 66.5479C58.1199 70.9792 58.366 75.4075 58.8716 79.8098C58.8716 79.8098 57.0292 90.0633 62.2494 93.0104C67.4695 95.9575 72.3213 98.4134 72.3213 98.4134C72.3213 98.4134 80.6613 99.7641 81.6857 100.194C82.7101 100.624 86.2696 95.0979 85.7169 94.1769C85.1642 93.256 77.5709 90.9843 76.6694 89.4493C75.7678 87.9144 73.5471 86.8804 73.5471 86.8804C73.5471 86.8804 71.2821 85.3356 71.1912 84.0463C71.1003 82.7569 71.7685 81.836 71.9577 81.2834C72.1468 80.7308 72.8322 75.3278 72.8322 75.3278C72.8322 75.3278 76.4974 56.1594 64.6445 57.2154Z" fill="#DCE6F2"/>
<path opacity="0.1" d="M67.5923 79.9817C67.5923 79.9817 58.8716 80.9641 59.5471 84.0339C59.5471 84.0339 62.861 80.937 67.5923 79.9817Z" fill="black"/>
<path opacity="0.1" d="M67.5924 81.2097C67.5924 81.2097 62.6424 84.8322 63.5513 85.0778C64.4603 85.3234 67.5924 81.2097 67.5924 81.2097Z" fill="black"/>
<path opacity="0.1" d="M69.8033 82.6832C69.8033 82.6832 68.3908 85.2226 69.1891 85.09C69.9875 84.9574 69.8033 82.6832 69.8033 82.6832Z" fill="black"/>
<path d="M160.603 27.6019C160.603 27.6019 151.268 27.0395 152.359 33.587C152.359 33.587 152.14 34.7437 153.189 35.2693C153.189 35.2693 153.206 34.7781 154.147 34.9476C154.482 35.0039 154.823 35.0204 155.162 34.9967C155.621 34.9661 156.058 34.7858 156.405 34.4834C156.405 34.4834 159.031 33.4003 160.053 29.1074C160.053 29.1074 160.809 28.1692 160.79 27.9286L159.212 28.6039C159.212 28.6039 159.75 29.741 159.325 30.6866C159.325 30.6866 159.276 28.6457 158.972 28.6924C158.91 28.6924 158.154 29.0878 158.154 29.0878C158.154 29.0878 159.08 31.0672 158.38 32.5088C158.38 32.5088 158.645 30.0677 157.864 29.2302L156.753 29.8786C156.753 29.8786 157.837 31.9243 157.102 33.5944C157.102 33.5944 157.291 31.0328 156.52 30.0357L155.513 30.8192C155.513 30.8192 156.532 32.8379 155.911 34.2231C155.911 34.2231 155.83 31.2416 155.294 31.0157C155.294 31.0157 154.415 31.7917 154.282 32.111C154.282 32.111 154.977 33.5845 154.545 34.3483C154.545 34.3483 154.28 32.3615 154.054 32.3517C154.054 32.3517 153.177 33.668 153.086 34.562C153.128 33.7286 153.388 32.9208 153.84 32.219C153.334 32.3147 152.868 32.5563 152.499 32.9141C152.499 32.9141 152.634 31.9833 154.056 31.9022C154.056 31.9022 154.793 30.9027 154.975 30.8413C154.975 30.8413 153.56 30.7234 152.703 31.1041C152.703 31.1041 153.457 30.2273 155.235 30.6129L156.218 29.8024C156.218 29.8024 154.356 29.5568 153.565 29.8294C153.565 29.8294 154.474 29.0534 156.486 29.6182L157.567 28.9723C157.567 28.9723 155.98 28.6285 155.034 28.7538C155.034 28.7538 156.031 28.2159 157.883 28.798L158.657 28.4517C158.657 28.4517 157.493 28.2233 157.154 28.1864C156.815 28.1496 156.795 28.0563 156.795 28.0563C157.532 27.9337 158.288 28.0187 158.979 28.3019C158.979 28.3019 160.637 27.7051 160.603 27.6019Z" fill="#3AD29F"/>
<path opacity="0.25" d="M188.966 60.3491C188.966 60.3491 179.631 59.7867 180.722 66.3342C180.722 66.3342 180.503 67.4909 181.552 68.0165C181.552 68.0165 181.57 67.5253 182.513 67.6948C182.848 67.7511 183.189 67.7676 183.527 67.7439C183.981 67.711 184.412 67.5317 184.756 67.2331C184.756 67.2331 187.384 66.1475 188.406 61.8546C188.406 61.8546 189.16 60.9189 189.131 60.6782L187.554 61.3511C187.554 61.3511 188.092 62.4882 187.669 63.4338C187.669 63.4338 187.618 61.3929 187.315 61.4396C187.254 61.4396 186.495 61.8349 186.495 61.8349C186.495 61.8349 187.424 63.8169 186.723 65.256C186.723 65.256 186.989 62.8149 186.205 61.9774L185.107 62.6184C185.107 62.6184 186.19 64.6642 185.456 66.3342C185.456 66.3342 185.645 63.7727 184.874 62.7756L183.869 63.5615C183.869 63.5615 184.886 65.5778 184.267 66.9629C184.267 66.9629 184.186 63.9814 183.65 63.7555C183.65 63.7555 182.771 64.5315 182.636 64.8508C182.636 64.8508 183.333 66.3244 182.901 67.0882C182.901 67.0882 182.636 65.1013 182.41 65.0915C182.41 65.0915 181.533 66.4079 181.442 67.3018C181.486 66.4683 181.747 65.6607 182.198 64.9589C181.692 65.0547 181.225 65.2963 180.855 65.6539C180.855 65.6539 180.992 64.7231 182.415 64.6421C182.415 64.6421 183.139 63.6425 183.333 63.5811C183.333 63.5811 181.918 63.4632 181.061 63.8439C181.061 63.8439 181.815 62.9671 183.591 63.365L184.574 62.5545C184.574 62.5545 182.709 62.3089 181.921 62.5815C181.921 62.5815 182.83 61.8055 184.842 62.3703L185.923 61.7244C185.923 61.7244 184.333 61.3831 183.387 61.5059C183.387 61.5059 184.387 60.968 186.239 61.5501L187.013 61.2038C187.013 61.2038 185.849 60.9754 185.507 60.9385C185.166 60.9017 185.149 60.8084 185.149 60.8084C185.886 60.6857 186.643 60.7708 187.335 61.054C187.335 61.054 188.996 60.4523 188.966 60.3491Z" fill="#3AD29F"/>
<path opacity="0.25" d="M132.257 54.5361C132.257 54.5361 134.406 45.4271 127.763 45.3952C127.763 45.3952 126.66 44.9826 125.965 45.9256C125.965 45.9256 126.439 46.0263 126.118 46.9252C126.006 47.243 125.932 47.5727 125.896 47.9076C125.849 48.3641 125.952 48.8236 126.189 49.2166C126.189 49.2166 126.81 51.9917 130.856 53.7305C130.856 53.7305 131.652 54.6343 131.893 54.6441L131.5 52.9766C131.5 52.9766 130.286 53.313 129.427 52.731C129.427 52.731 131.448 53.0281 131.451 52.731C131.451 52.6696 131.205 51.8567 131.205 51.8567C131.205 51.8567 129.095 52.4313 127.793 51.4956C127.793 51.4956 130.154 52.1735 131.114 51.5472L130.672 50.3389C130.672 50.3389 128.461 51.0585 126.948 50.0491C126.948 50.0491 129.441 50.6729 130.557 50.0835L129.955 48.9587C129.955 48.9587 127.793 49.6169 126.533 48.7696C126.533 48.7696 129.481 49.1969 129.8 48.7106C129.8 48.7106 129.186 47.7111 128.893 47.5244C128.893 47.5244 127.331 47.9616 126.643 47.4041C126.643 47.4041 128.645 47.4802 128.692 47.269C128.692 47.269 127.545 46.181 126.67 45.9355C127.485 46.121 128.238 46.5154 128.854 47.0799C128.845 46.5652 128.686 46.0643 128.397 45.6383C128.397 45.6383 129.291 45.933 129.134 47.3574C129.134 47.3574 129.994 48.2416 130.021 48.4429C130.021 48.4429 130.377 47.0701 130.149 46.1589C130.149 46.1589 130.886 47.0529 130.191 48.7352L130.819 49.8526C130.819 49.8526 131.389 48.0598 131.244 47.2346C131.244 47.2346 131.856 48.2612 130.955 50.1473L131.409 51.3237C131.409 51.3237 132.016 49.8158 132.055 48.8678C132.055 48.8678 132.416 49.9435 131.524 51.67L131.736 52.4903C131.736 52.4903 132.158 51.3827 132.252 51.0536C132.345 50.7245 132.441 50.722 132.441 50.722C132.437 51.4692 132.225 52.2005 131.829 52.8341C131.829 52.8341 132.151 54.5483 132.257 54.5361Z" fill="#3AD29F"/>
<path opacity="0.25" d="M111.813 57.6402C111.813 57.6402 104.316 52.0334 101.635 58.1068C101.635 58.1068 100.817 58.9541 101.405 59.9684C101.405 59.9684 101.685 59.573 102.387 60.2288C102.636 60.4602 102.911 60.6614 103.208 60.828C103.609 61.0513 104.072 61.1376 104.527 61.0736C104.527 61.0736 107.317 61.6114 110.531 58.5882C110.531 58.5882 111.678 58.2198 111.786 58.0037L110.093 57.7065C110.093 57.7065 109.917 58.9517 109.044 59.5092C109.044 59.5092 110.123 57.7753 109.843 57.65C109.786 57.623 108.941 57.5272 108.941 57.5272C108.941 57.5272 108.627 59.6934 107.251 60.5112C107.251 60.5112 108.816 58.6177 108.622 57.488L107.337 57.4192C107.337 57.4192 107.118 59.7253 105.586 60.7175C105.586 60.7175 107.15 58.6815 107.06 57.4241L105.787 57.5272C105.787 57.5272 105.529 59.7695 104.249 60.5849C104.249 60.5849 105.819 58.0504 105.497 57.569C105.497 57.569 104.335 57.7336 104.048 57.9251C104.048 57.9251 103.824 59.5313 103.038 59.939C103.038 59.939 103.91 58.1339 103.733 58.0086C103.733 58.0086 102.277 58.625 101.704 59.3274C102.199 58.6549 102.862 58.1233 103.625 57.7851C103.15 57.5877 102.628 57.5331 102.122 57.6279C102.122 57.6279 102.746 56.9256 103.979 57.6402C103.979 57.6402 105.134 57.2055 105.33 57.2596C105.33 57.2596 104.212 56.3828 103.286 56.2305C103.286 56.2305 104.402 55.9113 105.667 57.2129L106.942 57.0827C106.942 57.0827 105.524 55.8548 104.711 55.6485C104.711 55.6485 105.898 55.4987 107.266 57.0754L108.524 57.1319C108.524 57.1319 107.386 55.9727 106.529 55.5552C106.529 55.5552 107.656 55.6534 108.885 57.1589L109.722 57.2939C109.722 57.2939 108.875 56.4638 108.61 56.2477C108.344 56.0316 108.381 55.9407 108.381 55.9407C109.065 56.2433 109.651 56.7296 110.074 57.3455C110.074 57.3455 111.781 57.7409 111.813 57.6402Z" fill="#3AD29F"/>
<path opacity="0.25" d="M136.774 5.54793C136.774 5.54793 129.277 -0.0613737 126.597 6.01456C126.597 6.01456 125.779 6.86185 126.366 7.87614C126.366 7.87614 126.646 7.48074 127.348 8.13647C127.598 8.36673 127.875 8.56701 128.171 8.73325C128.572 8.95677 129.036 9.04302 129.49 8.97884C129.49 8.97884 132.281 9.51669 135.494 6.491C135.494 6.491 136.642 6.12507 136.747 5.9065L135.055 5.61424C135.055 5.61424 134.88 6.85939 134.006 7.41689C134.006 7.41689 135.086 5.68301 134.806 5.55776C134.75 5.53074 133.905 5.43496 133.905 5.43496C133.905 5.43496 133.581 7.60599 132.205 8.4189C132.205 8.4189 133.767 6.52539 133.576 5.39567L132.291 5.3269C132.291 5.3269 132.07 7.633 130.539 8.62274C130.539 8.62274 132.104 6.58679 132.013 5.32936L130.743 5.43251C130.743 5.43251 130.483 7.67721 129.203 8.49257C129.203 8.49257 130.775 5.95807 130.453 5.47671C130.453 5.47671 129.291 5.64126 129.004 5.83282C129.004 5.83282 128.78 7.43899 127.994 7.84667C127.994 7.84667 128.866 6.04157 128.69 5.91387C128.69 5.91387 127.233 6.53275 126.66 7.23515C127.155 6.56191 127.817 6.03011 128.582 5.69283C128.106 5.49392 127.582 5.43926 127.076 5.53565C127.076 5.53565 127.702 4.83326 128.935 5.54793C128.935 5.54793 130.09 5.11078 130.286 5.16727C130.286 5.16727 129.169 4.29051 128.243 4.13578C128.243 4.13578 129.355 3.81897 130.62 5.11815L131.895 4.98798C131.895 4.98798 130.48 3.76003 129.665 3.55128C129.665 3.55128 130.851 3.40392 132.222 4.98062L133.48 5.03465C133.48 5.03465 132.343 3.87546 131.483 3.46041C131.483 3.46041 132.613 3.55864 133.841 5.06412L134.676 5.19919C134.676 5.19919 133.826 4.37892 133.561 4.16771C133.296 3.9565 133.333 3.86318 133.333 3.86318C134.016 4.1654 134.602 4.65179 135.025 5.26796C135.025 5.26796 136.732 5.64126 136.774 5.54793Z" fill="#3AD29F"/>
<path opacity="0.25" d="M165.423 12.6528C165.423 12.6528 162.426 3.78451 156.773 7.26945C156.773 7.26945 155.618 7.51504 155.528 8.67178C155.528 8.67178 155.982 8.50477 156.183 9.43802C156.258 9.76999 156.371 10.0922 156.52 10.3983C156.723 10.8102 157.054 11.1453 157.463 11.3536C157.463 11.3536 159.458 13.3798 163.821 12.7093C163.821 12.7093 164.973 13.058 165.184 12.9377L163.956 11.7318C163.956 11.7318 163.106 12.6577 162.069 12.6209C162.069 12.6209 163.944 11.8055 163.789 11.5427C163.757 11.4912 163.116 10.9337 163.116 10.9337C163.116 10.9337 161.627 12.5374 160.03 12.4318C160.03 12.4318 162.391 11.7589 162.873 10.7126L161.856 9.9292C161.856 9.9292 160.367 11.7024 158.542 11.6483C158.542 11.6483 160.998 10.86 161.62 9.76957L160.514 9.13349C160.514 9.13349 159.04 10.8354 157.512 10.7814C157.512 10.7814 160.244 9.58538 160.251 9.00578C160.251 9.00578 159.203 8.48267 158.856 8.47776C158.856 8.47776 157.761 9.67379 156.891 9.56573C156.891 9.56573 158.63 8.57108 158.556 8.36724C158.556 8.36724 157.009 8.05043 156.137 8.30585C156.926 8.03129 157.772 7.96779 158.593 8.12165C158.313 7.68916 157.913 7.34777 157.441 7.13929C157.441 7.13929 158.355 6.9158 158.967 8.2027C158.967 8.2027 160.166 8.49986 160.293 8.65458C160.293 8.65458 159.871 7.30138 159.195 6.6481C159.195 6.6481 160.293 7.01895 160.593 8.81422L161.718 9.4282C161.718 9.4282 161.254 7.60837 160.694 6.97228C160.694 6.97228 161.757 7.52241 161.988 9.59766L162.995 10.3565C162.995 10.3565 162.715 8.75528 162.244 7.92518C162.244 7.92518 163.118 8.64722 163.276 10.5849L163.887 11.1694C163.887 11.1694 163.661 10.0053 163.568 9.67625C163.474 9.34715 163.551 9.32505 163.551 9.32505C163.941 9.96215 164.148 10.6948 164.148 11.442C164.148 11.442 165.337 12.7167 165.423 12.6528Z" fill="#3AD29F"/>
<path opacity="0.25" d="M145.863 13.09C145.863 13.09 136.553 12.0536 137.322 18.6576C137.322 18.6576 137.044 19.802 138.059 20.3767C138.059 20.3767 138.101 19.8855 139.042 20.1066C139.374 20.1781 139.714 20.2119 140.054 20.2073C140.513 20.199 140.957 20.0412 141.319 19.7578C141.319 19.7578 143.999 18.8074 145.249 14.5709C145.249 14.5709 146.05 13.6745 146.033 13.4314L144.424 14.0257C144.424 14.0257 144.915 15.1874 144.424 16.1108C144.424 16.1108 144.475 14.0699 144.178 14.1019C144.117 14.1019 143.341 14.4555 143.341 14.4555C143.341 14.4555 144.166 16.4816 143.395 17.8938C143.395 17.8938 143.783 15.4674 143.043 14.593L141.901 15.1825C141.901 15.1825 142.884 17.2823 142.061 18.913C142.061 18.913 142.38 16.3638 141.66 15.3298L140.616 16.0666C140.616 16.0666 141.53 18.132 140.84 19.4852C140.84 19.4852 140.911 16.5037 140.388 16.2508C140.388 16.2508 139.469 16.9876 139.319 17.2921C139.319 17.2921 139.941 18.7902 139.471 19.5393C139.471 19.5393 139.307 17.5426 139.091 17.523C139.091 17.523 138.147 18.7927 138.01 19.6891C138.095 18.858 138.397 18.0637 138.884 17.3854C138.375 17.4558 137.896 17.6735 137.509 18.0117C137.509 18.0117 137.69 17.0907 139.115 17.0809C139.115 17.0809 139.889 16.1206 140.098 16.0691C140.098 16.0691 138.69 15.8799 137.813 16.2164C137.813 16.2164 138.612 15.3765 140.366 15.8652L141.4 15.1063C141.4 15.1063 139.53 14.7281 138.739 14.9737C138.739 14.9737 139.688 14.2369 141.668 14.9123L142.78 14.3204C142.78 14.3204 141.211 13.898 140.26 13.9742C140.26 13.9742 141.284 13.483 143.105 14.1633L143.896 13.8563C143.896 13.8563 142.744 13.5689 142.405 13.5149C142.066 13.4609 142.053 13.3675 142.053 13.3675C142.796 13.2824 143.548 13.4048 144.225 13.7212C144.225 13.7212 145.881 13.1932 145.863 13.09Z" fill="#3AD29F"/>
<path opacity="0.25" d="M227.323 85.3356C227.323 85.3356 218.018 84.2992 218.787 90.8958C218.787 90.8958 218.509 92.0403 219.523 92.615C219.523 92.615 219.565 92.1238 220.506 92.3423C220.838 92.4163 221.178 92.4501 221.518 92.443C221.978 92.436 222.422 92.2781 222.783 91.9936C222.783 91.9936 225.464 91.0432 226.702 86.8092C226.702 86.8092 227.502 85.9103 227.485 85.6696L225.876 86.2615C225.876 86.2615 226.368 87.4256 225.876 88.349C225.876 88.349 225.928 86.3057 225.631 86.3401C225.569 86.3401 224.793 86.6913 224.793 86.6913C224.793 86.6913 225.618 88.7174 224.847 90.1296C224.847 90.1296 225.235 87.7056 224.496 86.8288L223.353 87.4207C223.353 87.4207 224.336 89.5205 223.515 91.1512C223.515 91.1512 223.832 88.602 223.113 87.5656L222.069 88.3024C222.069 88.3024 222.982 90.3678 222.292 91.7185C222.292 91.7185 222.363 88.7371 221.84 88.4866C221.84 88.4866 220.924 89.2233 220.771 89.5279C220.771 89.5279 221.395 91.026 220.924 91.775C220.924 91.775 220.759 89.7784 220.543 89.7587C220.543 89.7587 219.6 91.0284 219.462 91.9248C219.547 91.0938 219.849 90.2995 220.337 89.6212C219.826 89.6904 219.348 89.9082 218.961 90.2474C218.961 90.2474 219.143 89.324 220.568 89.3142C220.568 89.3142 221.344 88.3539 221.55 88.3048C221.55 88.3048 220.143 88.1133 219.266 88.4497C219.266 88.4497 220.064 87.6122 221.82 88.101L222.852 87.3421C222.852 87.3421 221.005 86.9934 220.202 87.234C220.202 87.234 221.15 86.4973 223.13 87.1702L224.243 86.5808C224.243 86.5808 222.673 86.1583 221.722 86.2345C221.722 86.2345 222.747 85.7433 224.567 86.4236L225.358 86.1141C225.358 86.1141 224.206 85.8268 223.867 85.7752C223.528 85.7236 223.515 85.6279 223.515 85.6279C224.258 85.5411 225.01 85.6627 225.687 85.9791C225.687 85.9791 227.348 85.4412 227.323 85.3356Z" fill="#3AD29F"/>
<path opacity="0.25" d="M241.549 94.0246C241.549 94.0246 232.244 92.9907 233.013 99.5848C233.013 99.5848 232.737 100.729 233.749 101.304C233.749 101.304 233.791 100.813 234.732 101.034C235.064 101.106 235.403 101.139 235.742 101.132C236.199 101.123 236.641 100.966 237.002 100.685C237.002 100.685 239.68 99.7346 240.918 95.4982C240.918 95.4982 241.721 94.6018 241.701 94.3586L240.092 94.9505C240.092 94.9505 240.584 96.1146 240.092 97.038C240.092 97.038 240.144 94.9972 239.847 95.0291C239.785 95.0291 239.009 95.3803 239.009 95.3803C239.009 95.3803 239.834 97.4064 239.063 98.8186C239.063 98.8186 239.451 96.3946 238.712 95.5203L237.569 96.1097C237.569 96.1097 238.552 98.2095 237.732 99.8402C237.732 99.8402 238.048 97.291 237.329 96.257L236.285 96.9938C236.285 96.9938 237.198 99.0592 236.511 100.412C236.511 100.412 236.579 97.4285 236.056 97.178C236.056 97.178 235.14 97.9148 234.988 98.2193C234.988 98.2193 235.612 99.7174 235.14 100.466C235.14 100.466 234.975 98.4698 234.759 98.4502C234.759 98.4502 233.816 99.7199 233.681 100.616C233.766 99.7856 234.066 98.9915 234.553 98.3126C234.043 98.3831 233.565 98.6007 233.177 98.9389C233.177 98.9389 233.361 98.0155 234.786 98.0081C234.786 98.0081 235.56 97.0478 235.769 96.9963C235.769 96.9963 234.361 96.8072 233.484 97.1436C233.484 97.1436 234.283 96.3037 236.039 96.7924L237.071 96.0336C237.071 96.0336 235.223 95.6848 234.42 95.9255C234.42 95.9255 235.368 95.1887 237.348 95.8641L238.461 95.2722C238.461 95.2722 236.891 94.8498 235.941 94.9259C235.941 94.9259 236.965 94.4348 238.785 95.115L239.576 94.8081C239.576 94.8081 238.424 94.5207 238.088 94.4667C237.751 94.4127 237.734 94.3193 237.734 94.3193C238.477 94.2341 239.228 94.3566 239.906 94.673C239.906 94.673 241.574 94.1302 241.549 94.0246Z" fill="#3AD29F"/>
<path opacity="0.25" d="M209.965 20.836C209.965 20.836 202.468 15.2292 199.788 21.3027C199.788 21.3027 198.969 22.1499 199.557 23.1642C199.557 23.1642 199.837 22.7688 200.539 23.4246C200.788 23.656 201.063 23.8572 201.36 24.0238C201.761 24.247 202.224 24.3332 202.679 24.2694C202.679 24.2694 205.47 24.8072 208.685 21.784C208.685 21.784 209.83 21.4156 209.938 21.1995L208.25 20.895C208.25 20.895 208.073 22.1401 207.201 22.6976C207.201 22.6976 208.28 20.9637 208 20.8385C207.943 20.8115 207.101 20.7157 207.101 20.7157C207.101 20.7157 206.784 22.8818 205.408 23.6996C205.408 23.6996 206.973 21.8061 206.779 20.6764L205.494 20.6076C205.494 20.6076 205.275 22.9137 203.743 23.9059C203.743 23.9059 205.31 21.87 205.217 20.6125L203.944 20.7157C203.944 20.7157 203.698 22.9579 202.406 23.7733C202.406 23.7733 203.978 21.2388 203.654 20.7574C203.654 20.7574 202.492 20.922 202.205 21.1135C202.205 21.1135 201.984 22.7197 201.198 23.1274C201.198 23.1274 202.067 21.3223 201.89 21.197C201.89 21.197 200.434 21.8135 199.861 22.5159C200.356 21.8434 201.019 21.3117 201.782 20.9736C201.307 20.7761 200.785 20.7215 200.279 20.8164C200.279 20.8164 200.905 20.114 202.138 20.8287C202.138 20.8287 203.291 20.394 203.487 20.448C203.487 20.448 202.369 19.5712 201.443 19.419C201.443 19.419 202.559 19.0997 203.824 20.4013L205.099 20.2712C205.099 20.2712 203.684 19.0432 202.868 18.8369C202.868 18.8369 204.055 18.6871 205.423 20.2638L206.683 20.3203C206.683 20.3203 205.543 19.1611 204.686 18.7436C204.686 18.7436 205.816 18.8418 207.042 20.3473L207.879 20.4824C207.879 20.4824 207.032 19.6523 206.767 19.4362C206.501 19.22 206.541 19.1488 206.541 19.1488C207.223 19.4519 207.808 19.9381 208.231 20.5536C208.231 20.5536 209.933 20.9367 209.965 20.836Z" fill="#3AD29F"/>
<path opacity="0.25" d="M215.758 61.3143C215.758 61.3143 213.173 52.3183 207.361 55.5478C207.361 55.5478 206.197 55.7271 206.052 56.8912C206.052 56.8912 206.514 56.7463 206.673 57.6869C206.732 58.0249 206.831 58.3546 206.968 58.6693C207.15 59.0925 207.466 59.4444 207.867 59.6713C207.867 59.6713 209.769 61.7834 214.156 61.3119C214.156 61.3119 215.291 61.7097 215.507 61.6017L214.345 60.3393C214.345 60.3393 213.453 61.2284 212.422 61.1449C212.422 61.1449 214.328 60.4081 214.18 60.1453C214.151 60.0913 213.537 59.5043 213.537 59.5043C213.537 59.5043 211.979 61.0417 210.388 60.8624C210.388 60.8624 212.778 60.2976 213.303 59.2808L212.321 58.4507C212.321 58.4507 210.754 60.1551 208.933 60.0225C208.933 60.0225 211.409 59.3422 212.092 58.2837L211.016 57.5985C211.016 57.5985 209.457 59.2317 207.943 59.1089C207.943 59.1089 210.727 58.0357 210.761 57.4585C210.761 57.4585 209.734 56.8888 209.388 56.8691C209.388 56.8691 208.241 58.0136 207.368 57.8662C207.368 57.8662 209.152 56.9502 209.088 56.7439C209.088 56.7439 207.555 56.3583 206.673 56.572C207.472 56.3352 208.319 56.3106 209.13 56.5007C208.87 56.0564 208.486 55.6978 208.024 55.4693C208.024 55.4693 208.948 55.2851 209.498 56.599C209.498 56.599 210.68 56.9477 210.803 57.1098C210.803 57.1098 210.442 55.7369 209.796 55.0567C209.796 55.0567 210.876 55.4742 211.095 57.2817L212.191 57.9473C212.191 57.9473 211.807 56.1053 211.277 55.457C211.277 55.457 212.313 56.0538 212.454 58.1364L213.436 58.9395C213.436 58.9395 213.227 57.3284 212.795 56.4835C212.795 56.4835 213.638 57.2449 213.706 59.185L214.291 59.799C214.291 59.799 214.119 58.6251 214.045 58.2911C213.972 57.9571 214.045 57.9104 214.045 57.9104C214.409 58.5637 214.583 59.3052 214.549 60.052C214.549 60.052 215.669 61.3733 215.758 61.3143Z" fill="#3AD29F"/>
<path opacity="0.25" d="M158.171 81.5855C158.171 81.5855 153.152 73.6823 148.492 78.4124C148.492 78.4124 147.426 78.9036 147.612 80.0702C147.612 80.0702 148.018 79.8 148.435 80.6596C148.585 80.9642 148.772 81.2495 148.991 81.5093C149.283 81.8639 149.685 82.1124 150.133 82.2166C150.133 82.2166 152.553 83.7098 156.631 82.0202C156.631 82.0202 157.832 82.084 158.009 81.9195L156.535 81.0353C156.535 81.0353 155.928 82.1405 154.913 82.3492C154.913 82.3492 156.54 81.1213 156.321 80.8953C156.279 80.8511 155.523 80.4631 155.523 80.4631C155.523 80.4631 154.459 82.3738 152.882 82.6513C152.882 82.6513 155.017 81.4356 155.238 80.3108L154.061 79.7926C154.061 79.7926 153.037 81.8679 151.253 82.2485C151.253 82.2485 153.439 80.9003 153.796 79.6919L152.567 79.3383C152.567 79.3383 151.531 81.3448 150.044 81.6518C150.044 81.6518 152.413 79.8393 152.282 79.2744C152.282 79.2744 151.138 79.0166 150.808 79.0952C150.808 79.0952 150.03 80.5171 149.15 80.6203C149.15 80.6203 150.605 79.2401 150.484 79.0583C150.484 79.0583 148.905 79.1197 148.119 79.5741C148.82 79.1199 149.628 78.8574 150.462 78.8127C150.089 78.4593 149.62 78.2228 149.113 78.1325C149.113 78.1325 149.946 77.6978 150.833 78.8029C150.833 78.8029 152.061 78.8029 152.231 78.9257C152.231 78.9257 151.494 77.6978 150.686 77.2385C150.686 77.2385 151.84 77.3367 152.558 79.0092L153.798 79.3383C153.798 79.3383 152.911 77.6806 152.221 77.2066C152.221 77.2066 153.383 77.4865 154.103 79.4488L155.262 79.94C155.262 79.94 154.609 78.4542 153.953 77.7591C153.953 77.7591 154.975 78.2503 155.586 80.0947L156.323 80.5196C156.323 80.5196 155.832 79.4414 155.658 79.1443C155.483 78.8471 155.552 78.7783 155.552 78.7783C156.084 79.3033 156.459 79.9657 156.635 80.6915C156.635 80.6915 158.104 81.669 158.171 81.5855Z" fill="#3AD29F"/>
<path d="M191.155 41.2053C191.155 41.2053 186.382 33.1523 181.575 37.7351C181.575 37.7351 180.494 38.2017 180.646 39.3658C180.646 39.3658 181.056 39.1055 181.449 39.9773C181.59 40.2873 181.767 40.5792 181.977 40.8467C182.259 41.2089 182.653 41.4679 183.098 41.5835C183.098 41.5835 185.468 43.1504 189.598 41.5835C189.598 41.5835 190.796 41.6842 190.978 41.5246L189.536 40.5962C189.536 40.5962 188.898 41.6793 187.876 41.8586C187.876 41.8586 189.539 40.6724 189.33 40.4489C189.286 40.4022 188.544 39.9896 188.544 39.9896C188.544 39.9896 187.421 41.8684 185.842 42.0968C185.842 42.0968 188.013 40.9474 188.266 39.8324L187.107 39.2872C187.107 39.2872 186.018 41.333 184.223 41.6596C184.223 41.6596 186.451 40.3801 186.844 39.1841L185.63 38.7911C185.63 38.7911 184.53 40.7559 183.036 41.026C183.036 41.026 185.458 39.2872 185.345 38.7199C185.345 38.7199 184.21 38.4252 183.871 38.494C183.871 38.494 183.048 39.8914 182.167 39.9675C182.167 39.9675 183.663 38.6364 183.55 38.4498C183.55 38.4498 181.968 38.462 181.169 38.8918C181.884 38.4605 182.7 38.2235 183.535 38.2042C183.172 37.8391 182.71 37.5881 182.206 37.4821C182.206 37.4821 183.053 37.072 183.925 38.2042C183.925 38.2042 185.154 38.2459 185.318 38.3712C185.318 38.3712 184.623 37.1432 183.827 36.6373C183.827 36.6373 184.977 36.7699 185.643 38.4645L186.871 38.8329C186.871 38.8329 186.038 37.1481 185.36 36.652C185.36 36.652 186.515 36.9688 187.173 38.9508L188.315 39.4837C188.315 39.4837 187.709 37.9782 187.087 37.2734C187.087 37.2734 188.092 37.7965 188.649 39.6581L189.369 40.105C189.369 40.105 188.907 39.0122 188.745 38.7101C188.583 38.408 188.652 38.3417 188.652 38.3417C189.167 38.8828 189.521 39.5561 189.676 40.2868C189.676 40.2868 191.084 41.2863 191.155 41.2053Z" fill="#3AD29F"/>
<path d="M160.957 58.1389C160.957 58.1389 161.202 48.7818 154.7 50.1006C154.7 50.1006 153.535 49.9214 153.044 50.9872C153.044 50.9872 153.535 50.9872 153.398 51.9328C153.353 52.2699 153.348 52.6112 153.383 52.9495C153.427 53.4084 153.622 53.8399 153.936 54.1775C153.936 54.1775 155.107 56.766 159.433 57.6452C159.433 57.6452 160.394 58.3697 160.635 58.3304L159.898 56.7783C159.898 56.7783 158.78 57.353 157.82 56.9625C157.82 56.9625 159.858 56.8421 159.802 56.5425C159.802 56.4811 159.379 55.7345 159.379 55.7345C159.379 55.7345 157.429 56.7292 155.967 56.0759C155.967 56.0759 158.424 56.2601 159.227 55.4521L158.542 54.3641C158.542 54.3641 156.532 55.5135 154.837 54.8356C154.837 54.8356 157.404 54.9388 158.377 54.1357L157.559 53.1533C157.559 53.1533 155.577 54.2389 154.172 53.6642C154.172 53.6642 157.149 53.4849 157.365 52.9421C157.365 52.9421 156.559 52.0899 156.235 51.9598C156.235 51.9598 154.795 52.6965 154.009 52.2987C154.009 52.2987 155.975 51.9696 155.987 51.751C155.987 51.751 154.643 50.9185 153.737 50.8571C154.573 50.872 155.39 51.1057 156.107 51.5349C155.995 51.0329 155.739 50.5745 155.37 50.2161C155.37 50.2161 156.306 50.3217 156.434 51.7387C156.434 51.7387 157.458 52.4313 157.525 52.6229C157.525 52.6229 157.596 51.2058 157.186 50.361C157.186 50.361 158.09 51.0855 157.751 52.8734L158.593 53.841C158.593 53.841 158.785 51.9696 158.478 51.1911C158.478 51.1911 159.284 52.0727 158.787 54.1013L159.468 55.1598C159.468 55.1598 159.758 53.561 159.603 52.6204C159.603 52.6204 160.173 53.6028 159.652 55.4717L160.026 56.2331C160.026 56.2331 160.215 55.0616 160.239 54.7202C160.264 54.3788 160.357 54.3567 160.357 54.3567C160.505 55.0894 160.446 55.8487 160.188 56.5499C160.188 56.5499 160.848 58.1708 160.957 58.1389Z" fill="#3AD29F"/>
<path opacity="0.1" d="M171.706 177.035C175.36 177.035 178.322 176.534 178.322 175.917C178.322 175.3 175.36 174.8 171.706 174.8C168.053 174.8 165.091 175.3 165.091 175.917C165.091 176.534 168.053 177.035 171.706 177.035Z" fill="#6C63FF"/>
<path opacity="0.1" d="M147.59 194C151.244 194 154.206 193.5 154.206 192.883C154.206 192.265 151.244 191.765 147.59 191.765C143.937 191.765 140.975 192.265 140.975 192.883C140.975 193.5 143.937 194 147.59 194Z" fill="#6C63FF"/>
<path opacity="0.1" d="M22.8804 185.309C26.5341 185.309 29.496 184.808 29.496 184.191C29.496 183.574 26.5341 183.074 22.8804 183.074C19.2268 183.074 16.2649 183.574 16.2649 184.191C16.2649 184.808 19.2268 185.309 22.8804 185.309Z" fill="#6C63FF"/>
<path opacity="0.1" d="M197.768 192.883C201.422 192.883 204.384 192.382 204.384 191.765C204.384 191.148 201.422 190.648 197.768 190.648C194.115 190.648 191.153 191.148 191.153 191.765C191.153 192.382 194.115 192.883 197.768 192.883Z" fill="#6C63FF"/>
<path d="M204.656 179.257C210.112 179.257 214.534 178.509 214.534 177.587C214.534 176.665 210.112 175.917 204.656 175.917C199.201 175.917 194.779 176.665 194.779 177.587C194.779 178.509 199.201 179.257 204.656 179.257Z" fill="#9E9E9E"/>
<path d="M208.751 174.854C209.202 174.487 209.531 173.992 209.692 173.434C209.815 172.869 209.574 172.194 209.036 171.988C208.432 171.757 207.786 172.174 207.295 172.597C206.803 173.019 206.246 173.503 205.605 173.415C205.934 173.116 206.18 172.737 206.319 172.315C206.459 171.892 206.487 171.441 206.401 171.005C206.373 170.825 206.296 170.655 206.179 170.514C205.843 170.156 205.236 170.31 204.833 170.593C203.556 171.492 203.2 173.225 203.192 174.787C203.064 174.225 203.173 173.638 203.17 173.068C203.168 172.498 203.008 171.84 202.519 171.541C202.219 171.373 201.88 171.289 201.537 171.295C200.962 171.275 200.321 171.332 199.93 171.752C199.439 172.273 199.569 173.149 199.991 173.717C200.414 174.284 201.06 174.65 201.654 175.048C202.13 175.332 202.536 175.719 202.843 176.18C202.878 176.244 202.907 176.312 202.929 176.381H206.531C207.337 175.975 208.084 175.461 208.751 174.854Z" fill="#3AD29F"/>
<path d="M18.439 178.997C18.439 178.997 22.2098 178.881 23.3521 178.071C24.4944 177.26 29.157 176.295 29.4395 177.595C29.722 178.894 35.1092 184.051 30.8495 184.085C26.5899 184.12 20.952 183.422 19.8171 182.73C18.6822 182.037 18.439 178.997 18.439 178.997Z" fill="#A8A8A8"/>
<path opacity="0.2" d="M30.9208 183.634C26.6611 183.668 21.0233 182.971 19.8883 182.278C19.0236 181.752 18.6797 179.864 18.5643 178.992H18.439C18.439 178.992 18.6846 182.035 19.8122 182.725C20.9398 183.415 26.5849 184.115 30.8446 184.081C32.0729 184.081 32.4979 183.634 32.4758 182.985C32.3038 183.381 31.8346 183.626 30.9208 183.634Z" fill="black"/>
</g>
<defs>
<linearGradient id="paint0_linear" x1="54.7789" y1="106.444" x2="131.456" y2="106.444" gradientUnits="userSpaceOnUse">
<stop stop-color="#808080" stop-opacity="0.25"/>
<stop offset="0.54" stop-color="#808080" stop-opacity="0.12"/>
<stop offset="1" stop-color="#808080" stop-opacity="0.1"/>
</linearGradient>
<clipPath id="clip0">
<rect width="248" height="194" fill="white"/>
</clipPath>
</defs>
</svg>
