<svg width="125" height="175" viewBox="0 0 125 175" fill="none" xmlns="http://www.w3.org/2000/svg">
<path d="M84.5123 19.6126L4.975 28.006C2.22738 28.296 0.235051 30.7584 0.525 33.506L14.9278 169.99C15.2178 172.738 17.6802 174.73 20.4279 174.44L99.9652 166.047C102.713 165.757 104.705 163.294 104.415 160.547L90.0123 24.0626C89.7224 21.315 87.2599 19.3227 84.5123 19.6126Z" fill="#C6C6C6"/>
<path d="M92.057 23H12.057C9.29558 23 7.05701 25.2386 7.05701 28V166C7.05701 168.761 9.29558 171 12.057 171H92.057C94.8184 171 97.057 168.761 97.057 166V28C97.057 25.2386 94.8184 23 92.057 23Z" fill="white"/>
<g filter="url(#filter0_d)">
<path d="M113.06 3H82.0601C79.2986 3 77.0601 5.23858 77.0601 8V39C77.0601 41.7614 79.2986 44 82.0601 44H113.06C115.821 44 118.06 41.7614 118.06 39V8C118.06 5.23858 115.821 3 113.06 3Z" fill="#E65870"/>
</g>
<path d="M106.357 22.133H98.59V14.366C98.5806 14.0289 98.4401 13.7088 98.1984 13.4737C97.9566 13.2385 97.6327 13.107 97.2955 13.107C96.9583 13.107 96.6343 13.2385 96.3926 13.4737C96.1509 13.7088 96.0104 14.0289 96.001 14.366V22.133H88.234C87.8969 22.1424 87.5768 22.2829 87.3416 22.5246C87.1065 22.7664 86.975 23.0903 86.975 23.4275C86.975 23.7647 87.1065 24.0887 87.3416 24.3304C87.5768 24.5721 87.8969 24.7126 88.234 24.722H96.001V32.489C95.9962 32.662 96.0261 32.8343 96.089 32.9955C96.1519 33.1568 96.2465 33.3038 96.3672 33.4279C96.4878 33.552 96.6322 33.6506 96.7916 33.7179C96.9511 33.7853 97.1224 33.82 97.2955 33.82C97.4686 33.82 97.6399 33.7853 97.7994 33.7179C97.9588 33.6506 98.1032 33.552 98.2238 33.4279C98.3445 33.3038 98.4391 33.1568 98.502 32.9955C98.5649 32.8343 98.5948 32.662 98.59 32.489V24.722H106.357C106.53 24.7268 106.702 24.6969 106.864 24.634C107.025 24.5711 107.172 24.4765 107.296 24.3559C107.42 24.2352 107.519 24.0908 107.586 23.9314C107.653 23.7719 107.688 23.6006 107.688 23.4275C107.688 23.2544 107.653 23.0831 107.586 22.9236C107.519 22.7642 107.42 22.6199 107.296 22.4992C107.172 22.3785 107.025 22.2839 106.864 22.221C106.702 22.1581 106.53 22.1282 106.357 22.133Z" fill="white"/>
<defs>
<filter id="filter0_d" x="71.0601" y="0" width="53" height="53" filterUnits="userSpaceOnUse" color-interpolation-filters="sRGB">
<feFlood flood-opacity="0" result="BackgroundImageFix"/>
<feColorMatrix in="SourceAlpha" type="matrix" values="0 0 0 0 0 0 0 0 0 0 0 0 0 0 0 0 0 0 127 0"/>
<feOffset dy="3"/>
<feGaussianBlur stdDeviation="3"/>
<feColorMatrix type="matrix" values="0 0 0 0 0 0 0 0 0 0 0 0 0 0 0 0 0 0 0.161 0"/>
<feBlend mode="normal" in2="BackgroundImageFix" result="effect1_dropShadow"/>
<feBlend mode="normal" in="SourceGraphic" in2="effect1_dropShadow" result="shape"/>
</filter>
</defs>
</svg>
