<svg width="219" height="192" viewBox="0 0 219 192" fill="none" xmlns="http://www.w3.org/2000/svg">
<path d="M196.47 75.1994L145.758 59.6949C143.117 58.8875 140.322 60.3738 139.514 63.0146L112.492 151.4C111.685 154.041 113.171 156.836 115.812 157.643L166.524 173.148C169.165 173.955 171.961 172.469 172.768 169.828L199.79 81.4427C200.597 78.802 199.111 76.0067 196.47 75.1994Z" fill="white"/>
<path d="M42.3572 103.676L4.83 113.738C2.16246 114.453 0.579791 117.195 1.295 119.863L19.1111 186.312C19.8263 188.98 22.5686 190.562 25.2361 189.847L62.7633 179.786C65.4308 179.07 67.0135 176.328 66.2983 173.661L48.4822 107.211C47.767 104.544 45.0247 102.961 42.3572 103.676Z" fill="#CFCFCF"/>
<path d="M73.8818 23.2058L54.2115 3.53553C52.2589 1.58291 49.0931 1.58291 47.1405 3.53553L10.7563 39.9197C8.80366 41.8723 8.80366 45.0382 10.7563 46.9908L30.4266 66.6611C32.3792 68.6137 35.545 68.6137 37.4976 66.6611L73.8818 30.2769C75.8344 28.3243 75.8344 25.1585 73.8818 23.2058Z" fill="#919191"/>
<path d="M124.457 60.342L115.933 44.963C114.594 42.5468 111.549 41.6737 109.133 43.013L77.8981 60.3261C75.4819 61.6653 74.6088 64.7098 75.9481 67.1261L84.4725 82.5051C85.8118 84.9213 88.8562 85.7943 91.2725 84.4551L122.507 67.142C124.924 65.8027 125.797 62.7583 124.457 60.342Z" fill="#727272"/>
<path d="M208.01 72.859C214.303 61.417 218.31 61.989 218.31 61.989" stroke="#4746A3" stroke-width="2"/>
<path d="M208.01 76.864C208.01 76.864 214.303 68.855 218.31 69.999" stroke="#4746A3" stroke-width="2"/>
</svg>
