<svg width="158" height="154" viewBox="0 0 158 154" fill="none" xmlns="http://www.w3.org/2000/svg">
<path d="M3.589 0C4.54086 0 5.45374 0.378126 6.12681 1.05119C6.79987 1.72426 7.178 2.63714 7.178 3.589V153.129H3.589C2.63714 153.129 1.72426 152.751 1.05119 152.078C0.378126 151.405 0 150.492 0 149.54L0 3.589C0 2.63714 0.378126 1.72426 1.05119 1.05119C1.72426 0.378126 2.63714 0 3.589 0V0Z" fill="#7675B5"/>
<path d="M46.841 120.43H40.89C38.1286 120.43 35.89 122.669 35.89 125.43V147.332C35.89 150.093 38.1286 152.332 40.89 152.332H46.841C49.6024 152.332 51.841 150.093 51.841 147.332V125.43C51.841 122.669 49.6024 120.43 46.841 120.43Z" fill="#AE5F5F"/>
<path d="M75.552 94.111H69.601C66.8396 94.111 64.601 96.3496 64.601 99.111V147.332C64.601 150.093 66.8396 152.332 69.601 152.332H75.552C78.3134 152.332 80.552 150.093 80.552 147.332V99.111C80.552 96.3496 78.3134 94.111 75.552 94.111Z" fill="#AE815F"/>
<path d="M104.264 67.792H98.313C95.5516 67.792 93.313 70.0306 93.313 72.792V147.332C93.313 150.093 95.5516 152.332 98.313 152.332H104.264C107.025 152.332 109.264 150.093 109.264 147.332V72.792C109.264 70.0306 107.025 67.792 104.264 67.792Z" fill="#89AE5F"/>
<path d="M132.976 41.473H127.025C124.264 41.473 122.025 43.7116 122.025 46.473V148.129C122.025 150.89 124.264 153.129 127.025 153.129H132.976C135.737 153.129 137.976 150.89 137.976 148.129V46.473C137.976 43.7116 135.737 41.473 132.976 41.473Z" fill="#5FAE7B"/>
<path d="M120.373 20.4861L119.051 19.0184C117.943 17.7872 116.046 17.6877 114.815 18.7964L22.6646 101.769C21.4333 102.877 21.3339 104.774 22.4425 106.005L23.764 107.473C24.8727 108.704 26.7696 108.804 28.0009 107.695L120.151 24.723C121.382 23.6143 121.482 21.7174 120.373 20.4861Z" fill="#4746A3"/>
<path d="M17.147 15.154H5.98198C4.88072 15.154 3.98798 16.0467 3.98798 17.148C3.98798 18.2492 4.88072 19.142 5.98198 19.142H17.147C18.2482 19.142 19.141 18.2492 19.141 17.148C19.141 16.0467 18.2482 15.154 17.147 15.154Z" fill="#7675B5"/>
<path d="M17.147 41.473H5.98198C4.88072 41.473 3.98798 42.3658 3.98798 43.467C3.98798 44.5683 4.88072 45.461 5.98198 45.461H17.147C18.2482 45.461 19.141 44.5683 19.141 43.467C19.141 42.3658 18.2482 41.473 17.147 41.473Z" fill="#7675B5"/>
<path d="M17.147 67.792H5.98198C4.88072 67.792 3.98798 68.6847 3.98798 69.786C3.98798 70.8872 4.88072 71.78 5.98198 71.78H17.147C18.2482 71.78 19.141 70.8872 19.141 69.786C19.141 68.6847 18.2482 67.792 17.147 67.792Z" fill="#7675B5"/>
<path d="M17.147 94.111H5.98198C4.88072 94.111 3.98798 95.0037 3.98798 96.105C3.98798 97.2062 4.88072 98.099 5.98198 98.099H17.147C18.2482 98.099 19.141 97.2062 19.141 96.105C19.141 95.0037 18.2482 94.111 17.147 94.111Z" fill="#7675B5"/>
<path d="M17.147 120.43H5.98198C4.88072 120.43 3.98798 121.323 3.98798 122.424C3.98798 123.525 4.88072 124.418 5.98198 124.418H17.147C18.2482 124.418 19.141 123.525 19.141 122.424C19.141 121.323 18.2482 120.43 17.147 120.43Z" fill="#7675B5"/>
<path d="M153.927 146.749H7.17798C5.41619 146.749 3.98798 148.177 3.98798 149.939C3.98798 151.701 5.41619 153.129 7.17798 153.129H153.927C155.689 153.129 157.117 151.701 157.117 149.939C157.117 148.177 155.689 146.749 153.927 146.749Z" fill="#7675B5"/>
<path d="M131.879 7.63837C132.058 7.58891 132.247 7.59029 132.426 7.64235C132.604 7.69441 132.764 7.7951 132.889 7.93313C133.013 8.07116 133.096 8.24108 133.129 8.42384C133.163 8.6066 133.144 8.79498 133.076 8.96786L125.599 28.012C125.536 28.1706 125.434 28.3106 125.303 28.4188C125.171 28.527 125.014 28.5998 124.846 28.6302C124.679 28.6607 124.506 28.6478 124.345 28.5927C124.184 28.5377 124.039 28.4424 123.925 28.3158L111.681 14.7178C111.567 14.5911 111.488 14.4374 111.45 14.2713C111.412 14.1051 111.417 13.9321 111.465 13.7685C111.513 13.605 111.601 13.4564 111.723 13.3368C111.844 13.2172 111.994 13.1306 112.158 13.0852L131.879 7.63837Z" fill="#4746A3"/>
</svg>
