<svg width="216" height="203" viewBox="0 0 216 203" fill="none" xmlns="http://www.w3.org/2000/svg">
<g opacity="0.5">
<path opacity="0.5" d="M156.482 33.8179H40.03V190.303H156.482V33.8179Z" fill="url(#paint0_linear)"/>
</g>
<path d="M154.361 35.9419H41.547V186.969H154.361V35.9419Z" fill="#F2F2F2"/>
<path d="M89.159 42.3098H50.342V43.5228H89.159V42.3098Z" fill="#E0E0E0"/>
<path opacity="0.7" d="M89.159 47.7678H50.342V48.9808H89.159V47.7678Z" fill="#6C63FF"/>
<path d="M133.739 42.3098H94.922V43.5228H133.739V42.3098Z" fill="#E0E0E0"/>
<path d="M139.803 76.8838H100.986V78.0968H139.803V76.8838Z" fill="#E0E0E0"/>
<path d="M140.714 80.2178H101.897V81.4308H140.714V80.2178Z" fill="#E0E0E0"/>
<path d="M142.534 83.5548H103.717V84.7678H142.534V83.5548Z" fill="#E0E0E0"/>
<path d="M139.803 130.56H100.986V131.773H139.803V130.56Z" fill="#E0E0E0"/>
<path d="M140.714 133.897H101.897V135.11H140.714V133.897Z" fill="#E0E0E0"/>
<path d="M142.534 137.232H103.717V138.445H142.534V137.232Z" fill="#E0E0E0"/>
<g opacity="0.5">
<path opacity="0.5" d="M91.889 64.4479H50.646V106.299H91.889V64.4479Z" fill="url(#paint1_linear)"/>
</g>
<path d="M91.5 65.3589H50.906V105.389H91.5V65.3589Z" fill="#F5F5F5"/>
<g opacity="0.5">
<path opacity="0.5" d="M90.199 67.7838H52.337V93.8638H90.199V67.7838Z" fill="url(#paint2_linear)"/>
</g>
<path d="M89.936 68.0879H52.596V93.2589H89.936V68.0879Z" fill="white"/>
<path opacity="0.4" d="M49.431 92.3499L58.831 77.7919L62.773 84.1589L71.265 75.3659L78.544 84.1589L84.911 71.1199L101.287 97.1999L48.216 95.3799L49.431 92.3499Z" fill="#6C63FF"/>
<path opacity="0.4" d="M56.709 74.4548C58.2162 74.4548 59.438 73.233 59.438 71.7258C59.438 70.2186 58.2162 68.9968 56.709 68.9968C55.2018 68.9968 53.98 70.2186 53.98 71.7258C53.98 73.233 55.2018 74.4548 56.709 74.4548Z" fill="#6C63FF"/>
<g opacity="0.5">
<path opacity="0.5" d="M91.889 118.127H50.646V159.978H91.889V118.127Z" fill="url(#paint3_linear)"/>
</g>
<path d="M91.5 119.036H50.906V159.066H91.5V119.036Z" fill="#F5F5F5"/>
<g opacity="0.5">
<path opacity="0.5" d="M90.199 121.464H52.337V147.544H90.199V121.464Z" fill="url(#paint4_linear)"/>
</g>
<path d="M89.936 121.765H52.596V146.936H89.936V121.765Z" fill="white"/>
<path opacity="0.4" d="M49.431 146.027L58.831 131.469L62.773 137.839L71.265 129.039L78.544 137.839L84.911 124.798L101.287 150.878L48.216 149.06L49.431 146.027Z" fill="#BDBDBD"/>
<path opacity="0.4" d="M56.709 128.134C58.2162 128.134 59.438 126.912 59.438 125.405C59.438 123.898 58.2162 122.676 56.709 122.676C55.2018 122.676 53.98 123.898 53.98 125.405C53.98 126.912 55.2018 128.134 56.709 128.134Z" fill="#BDBDBD"/>
<g opacity="0.5">
<path opacity="0.5" d="M87.6289 26.0863L57.127 179.57L171.345 202.269L201.847 48.785L87.6289 26.0863Z" fill="url(#paint5_linear)"/>
</g>
<path d="M88.7011 28.4637L59.263 176.594L169.913 198.583L199.351 50.4533L88.7011 28.4637Z" fill="white"/>
<path d="M173.914 52.5057L95.387 36.8999L95.1506 38.0896L173.678 53.6954L173.914 52.5057Z" fill="#E0E0E0"/>
<path d="M151.569 164.944L73.042 149.338L72.8056 150.528L151.333 166.133L151.569 164.944Z" fill="#E0E0E0"/>
<path d="M132.36 168.235L71.68 156.176L71.4436 157.366L132.124 169.425L132.36 168.235Z" fill="#E0E0E0"/>
<path opacity="0.7" d="M92.9259 167.512L70.321 163.02L70.0845 164.21L92.6895 168.702L92.9259 167.512Z" fill="#6C63FF"/>
<path opacity="0.7" d="M133.287 51.5444L94.025 43.7418L93.7886 44.9316L133.051 52.7342L133.287 51.5444Z" fill="#6C63FF"/>
<path d="M163.46 64.6514L92.668 50.5829L92.4315 51.7726L163.223 65.8411L163.46 64.6514Z" fill="#E0E0E0"/>
<path opacity="0.7" d="M108.558 60.854L91.307 57.4258L91.0706 58.6155L108.321 62.0438L108.558 60.854Z" fill="#3AD29F"/>
<path d="M168.476 79.8727L89.949 64.2668L89.7125 65.4566L168.24 81.0624L168.476 79.8727Z" fill="#E0E0E0"/>
<g opacity="0.5">
<path opacity="0.5" d="M96.868 93.1639L88.829 133.616L159.323 147.625L167.362 107.173L96.868 93.1639Z" fill="url(#paint6_linear)"/>
</g>
<path d="M166.87 107.383L97.267 93.5508L89.4051 133.111L159.008 146.943L166.87 107.383Z" fill="white"/>
<path d="M167.116 86.7167L88.589 71.1108L88.3526 72.3006L166.88 87.9064L167.116 86.7167Z" fill="#E0E0E0"/>
<path d="M112.118 102.067L103.492 100.353L97.7581 129.206L106.384 130.92L112.118 102.067Z" fill="#6C63FF"/>
<path d="M125.693 114.66L117.067 112.946L113.225 132.281L121.851 133.995L125.693 114.66Z" fill="#3AD29F"/>
<path d="M139.39 126.658L130.764 124.944L128.695 135.353L137.322 137.068L139.39 126.658Z" fill="#F55F44"/>
<path d="M156.985 119.023L148.359 117.309L144.162 138.429L152.788 140.143L156.985 119.023Z" fill="#FDD835"/>
<path d="M32.448 172.411H31.539V177.566H32.448V172.411Z" fill="#47E6B1"/>
<path d="M34.572 175.441V174.532H29.417V175.441H34.572Z" fill="#47E6B1"/>
<path d="M148.505 2.06884C148.254 1.9597 148.052 1.76195 147.937 1.51332C147.823 1.26468 147.804 0.982579 147.884 0.720841C147.897 0.680223 147.904 0.638267 147.907 0.595841C147.915 0.47542 147.884 0.355522 147.819 0.254139C147.753 0.152757 147.657 0.0753552 147.544 0.0335507C147.43 -0.00825376 147.307 -0.0122042 147.191 0.0222859C147.075 0.0567761 146.974 0.127849 146.902 0.224843C146.877 0.258625 146.856 0.295206 146.84 0.33384C146.731 0.584893 146.533 0.786975 146.284 0.901516C146.036 1.01606 145.754 1.03504 145.492 0.954842C145.451 0.942245 145.409 0.934525 145.367 0.931843C145.246 0.922932 145.125 0.953902 145.023 1.02004C144.921 1.08618 144.843 1.18387 144.802 1.29823C144.76 1.41259 144.757 1.53736 144.793 1.65355C144.829 1.76973 144.902 1.87097 145.001 1.94184C145.035 1.96673 145.071 1.98754 145.11 2.00384C145.361 2.11298 145.563 2.31073 145.678 2.55936C145.792 2.808 145.811 3.0901 145.731 3.35184C145.718 3.39245 145.711 3.43441 145.708 3.47684C145.698 3.59898 145.728 3.72101 145.795 3.82411C145.861 3.92721 145.959 4.00563 146.075 4.04727C146.19 4.08891 146.316 4.09146 146.432 4.05451C146.549 4.01756 146.651 3.94317 146.721 3.84284C146.746 3.80907 146.767 3.77249 146.783 3.73385C146.892 3.48279 147.09 3.28071 147.338 3.16617C147.587 3.05163 147.869 3.03265 148.131 3.11284C148.172 3.12544 148.214 3.13316 148.256 3.13584C148.375 3.14259 148.493 3.11098 148.593 3.04565C148.693 2.98031 148.769 2.88469 148.811 2.77283C148.852 2.66096 148.857 2.53874 148.824 2.42409C148.791 2.30945 148.722 2.20842 148.627 2.13584C148.589 2.10829 148.548 2.08577 148.505 2.06884Z" fill="#4D8AF0"/>
<path d="M35.694 40.2809C35.4429 40.1717 35.2409 39.974 35.1263 39.7254C35.0118 39.4767 34.9928 39.1946 35.073 38.9329C35.0856 38.8923 35.0934 38.8503 35.096 38.8079C35.1044 38.6874 35.0735 38.5675 35.008 38.4662C34.9425 38.3648 34.8458 38.2874 34.7326 38.2456C34.6194 38.2038 34.4956 38.1998 34.3799 38.2343C34.2643 38.2688 34.1629 38.3399 34.091 38.4369C34.0661 38.4706 34.0453 38.5072 34.029 38.5459C33.9199 38.7969 33.7221 38.999 33.4735 39.1136C33.2248 39.2281 32.9427 39.2471 32.681 39.1669C32.6404 39.1543 32.5984 39.1465 32.556 39.1439C32.4369 39.1371 32.3187 39.1687 32.2189 39.2341C32.1191 39.2994 32.0428 39.395 32.0013 39.5069C31.9598 39.6188 31.9552 39.741 31.9883 39.8556C32.0214 39.9703 32.0903 40.0713 32.185 40.1439C32.2188 40.1687 32.2554 40.1895 32.294 40.2059C32.5451 40.315 32.7472 40.5128 32.8617 40.7614C32.9762 41.01 32.9952 41.2921 32.915 41.5539C32.9024 41.5945 32.8947 41.6364 32.892 41.6789C32.8852 41.798 32.9169 41.9162 32.9822 42.016C33.0475 42.1158 33.1432 42.1921 33.255 42.2336C33.3669 42.2751 33.4891 42.2797 33.6038 42.2466C33.7184 42.2135 33.8194 42.1446 33.892 42.0499C33.9169 42.0161 33.9377 41.9795 33.954 41.9409C34.0631 41.6898 34.2609 41.4877 34.5096 41.3732C34.7582 41.2587 35.0403 41.2397 35.302 41.3199C35.3426 41.3325 35.3846 41.3402 35.427 41.3429C35.5461 41.3496 35.6643 41.318 35.7641 41.2527C35.864 41.1873 35.9402 41.0917 35.9818 40.9799C36.0233 40.868 36.0278 40.7458 35.9947 40.6311C35.9617 40.5165 35.8927 40.4155 35.798 40.3429C35.7658 40.3183 35.7309 40.2975 35.694 40.2809Z" fill="#FDD835"/>
<path d="M196.118 197.975C195.867 197.866 195.665 197.668 195.55 197.419C195.436 197.171 195.417 196.889 195.497 196.627C195.51 196.586 195.517 196.544 195.52 196.502C195.528 196.381 195.498 196.262 195.432 196.16C195.366 196.059 195.27 195.981 195.157 195.94C195.043 195.898 194.92 195.894 194.804 195.928C194.688 195.963 194.587 196.034 194.515 196.131C194.49 196.165 194.469 196.201 194.453 196.24C194.344 196.491 194.146 196.693 193.897 196.808C193.649 196.922 193.367 196.941 193.105 196.861C193.064 196.848 193.022 196.84 192.98 196.838C192.861 196.831 192.743 196.863 192.643 196.928C192.543 196.993 192.467 197.089 192.425 197.201C192.384 197.313 192.379 197.435 192.412 197.55C192.445 197.664 192.514 197.765 192.609 197.838C192.643 197.863 192.679 197.884 192.718 197.9C192.969 198.009 193.171 198.207 193.286 198.455C193.4 198.704 193.419 198.986 193.339 199.248C193.326 199.288 193.319 199.33 193.316 199.373C193.308 199.493 193.338 199.613 193.404 199.715C193.47 199.816 193.566 199.893 193.679 199.935C193.793 199.977 193.916 199.981 194.032 199.946C194.148 199.912 194.249 199.841 194.321 199.744C194.346 199.71 194.367 199.673 194.383 199.635C194.492 199.384 194.69 199.182 194.939 199.067C195.187 198.953 195.469 198.934 195.731 199.014C195.772 199.026 195.814 199.034 195.856 199.037C195.975 199.044 196.093 199.012 196.193 198.947C196.293 198.881 196.369 198.786 196.411 198.674C196.452 198.562 196.457 198.44 196.424 198.325C196.391 198.21 196.322 198.109 196.227 198.037C196.193 198.012 196.157 197.991 196.118 197.975Z" fill="#FDD835"/>
<path d="M83.397 21.3858C84.4022 21.3858 85.217 20.571 85.217 19.5658C85.217 18.5607 84.4022 17.7458 83.397 17.7458C82.3919 17.7458 81.577 18.5607 81.577 19.5658C81.577 20.571 82.3919 21.3858 83.397 21.3858Z" fill="#F55F44"/>
<path d="M213.799 44.1289C214.804 44.1289 215.619 43.314 215.619 42.3089C215.619 41.3037 214.804 40.4889 213.799 40.4889C212.794 40.4889 211.979 41.3037 211.979 42.3089C211.979 43.314 212.794 44.1289 213.799 44.1289Z" fill="#F55F44"/>
<path d="M203.49 98.4128C204.495 98.4128 205.31 97.598 205.31 96.5928C205.31 95.5877 204.495 94.7728 203.49 94.7728C202.485 94.7728 201.67 95.5877 201.67 96.5928C201.67 97.598 202.485 98.4128 203.49 98.4128Z" fill="#4D8AF0"/>
<path opacity="0.5" d="M1.82 9.25389C2.82516 9.25389 3.64 8.43905 3.64 7.43389C3.64 6.42873 2.82516 5.61389 1.82 5.61389C0.814842 5.61389 0 6.42873 0 7.43389C0 8.43905 0.814842 9.25389 1.82 9.25389Z" fill="#47E6B1"/>
<defs>
<linearGradient id="paint0_linear" x1="98.256" y1="190.303" x2="98.256" y2="33.8179" gradientUnits="userSpaceOnUse">
<stop stop-color="#808080" stop-opacity="0.251"/>
<stop offset="0.54" stop-color="#808080" stop-opacity="0.122"/>
<stop offset="1" stop-color="#808080" stop-opacity="0.102"/>
</linearGradient>
<linearGradient id="paint1_linear" x1="71.2675" y1="106.299" x2="71.2675" y2="64.4479" gradientUnits="userSpaceOnUse">
<stop stop-color="#808080" stop-opacity="0.251"/>
<stop offset="0.54" stop-color="#808080" stop-opacity="0.122"/>
<stop offset="1" stop-color="#808080" stop-opacity="0.102"/>
</linearGradient>
<linearGradient id="paint2_linear" x1="71.268" y1="93.8638" x2="71.268" y2="67.7838" gradientUnits="userSpaceOnUse">
<stop stop-color="#808080" stop-opacity="0.251"/>
<stop offset="0.54" stop-color="#808080" stop-opacity="0.122"/>
<stop offset="1" stop-color="#808080" stop-opacity="0.102"/>
</linearGradient>
<linearGradient id="paint3_linear" x1="71.2675" y1="159.978" x2="71.2675" y2="118.127" gradientUnits="userSpaceOnUse">
<stop stop-color="#808080" stop-opacity="0.251"/>
<stop offset="0.54" stop-color="#808080" stop-opacity="0.122"/>
<stop offset="1" stop-color="#808080" stop-opacity="0.102"/>
</linearGradient>
<linearGradient id="paint4_linear" x1="71.268" y1="147.544" x2="71.268" y2="121.464" gradientUnits="userSpaceOnUse">
<stop stop-color="#808080" stop-opacity="0.251"/>
<stop offset="0.54" stop-color="#808080" stop-opacity="0.122"/>
<stop offset="1" stop-color="#808080" stop-opacity="0.102"/>
</linearGradient>
<linearGradient id="paint5_linear" x1="197.653" y1="124.852" x2="44.2582" y2="94.368" gradientUnits="userSpaceOnUse">
<stop stop-color="#808080" stop-opacity="0.251"/>
<stop offset="0.54" stop-color="#808080" stop-opacity="0.122"/>
<stop offset="1" stop-color="#808080" stop-opacity="0.102"/>
</linearGradient>
<linearGradient id="paint6_linear" x1="140.179" y1="118.591" x2="99.7149" y2="110.549" gradientUnits="userSpaceOnUse">
<stop stop-color="#808080" stop-opacity="0.251"/>
<stop offset="0.54" stop-color="#808080" stop-opacity="0.122"/>
<stop offset="1" stop-color="#808080" stop-opacity="0.102"/>
</linearGradient>
</defs>
</svg>
