<svg width="512" height="536" viewBox="0 0 512 536" fill="none" xmlns="http://www.w3.org/2000/svg">
<path fill-rule="evenodd" clip-rule="evenodd" d="M11.3217 366H0V380C0 462.843 67.1573 530 150 530H362C444.843 530 512 462.843 512 380V366L500.678 366C490.9 439.387 428.062 496 352 496H160C83.9385 496 21.0996 439.387 11.3217 366Z" fill="white"/>
<rect x="6" y="6" width="500" height="500" rx="144" stroke="white" stroke-width="12"/>
<path d="M197 274C194.239 274 191.98 271.758 192.195 269.005C192.719 262.311 194.294 255.731 196.872 249.508C200.088 241.743 204.802 234.688 210.745 228.745C216.688 222.802 223.743 218.088 231.508 214.872C239.273 211.655 247.595 210 256 210C264.405 210 272.727 211.655 280.492 214.872C288.257 218.088 295.312 222.802 301.255 228.745C307.198 234.688 311.912 241.743 315.128 249.508C317.706 255.731 319.281 262.311 319.805 269.005C320.02 271.758 317.761 274 315 274L256 274L197 274Z" fill="white"/>
<path d="M133.971 183.876C131.304 184.591 128.522 183.006 128.212 180.262C127.835 176.93 127.96 173.55 128.591 170.236C129.534 165.28 131.584 160.602 134.589 156.549C137.594 152.496 141.475 149.174 145.942 146.832C150.41 144.489 155.35 143.185 160.392 143.018C165.434 142.851 170.449 143.826 175.062 145.868C179.675 147.91 183.767 150.968 187.033 154.813C190.299 158.658 192.654 163.192 193.923 168.074C194.771 171.339 195.119 174.703 194.964 178.053C194.836 180.812 192.165 182.577 189.456 182.04L162.642 176.726C161.891 176.577 161.115 176.603 160.376 176.801L133.971 183.876Z" fill="white"/>
<path d="M328.485 181.734C325.77 182.241 323.119 180.447 323.021 177.687C322.9 174.286 323.298 170.877 324.21 167.578C325.567 162.668 328.026 158.131 331.4 154.314C334.774 150.497 338.974 147.499 343.681 145.55C348.388 143.6 353.477 142.75 358.562 143.064C363.647 143.377 368.594 144.847 373.026 147.36C377.457 149.873 381.257 153.364 384.137 157.567C387.016 161.77 388.899 166.574 389.642 171.614C390.141 175 390.117 178.432 389.579 181.793C389.143 184.519 386.291 185.974 383.66 185.137L357.698 176.881C356.912 176.631 356.075 176.579 355.264 176.731L328.485 181.734Z" fill="white"/>
</svg>
